<?xml version="1.0" encoding="UTF-8" standalone="no"?>
<svg
   xmlns:dc="http://purl.org/dc/elements/1.1/"
   xmlns:cc="http://creativecommons.org/ns#"
   xmlns:rdf="http://www.w3.org/1999/02/22-rdf-syntax-ns#"
   xmlns:svg="http://www.w3.org/2000/svg"
   xmlns="http://www.w3.org/2000/svg"
   xmlns:sodipodi="http://sodipodi.sourceforge.net/DTD/sodipodi-0.dtd"
   xmlns:inkscape="http://www.inkscape.org/namespaces/inkscape"
   version="1.0"
   viewBox="0 0 9600 8320"
   preserveAspectRatio="xMidYMid meet"
   id="dc-logo"
   sodipodi:docname="logo.svg"
   inkscape:version="0.92.4 (5da689c313, 2019-01-14)">
  <defs
     id="defs61" />
  <sodipodi:namedview
     pagecolor="#ffffff"
     bordercolor="#666666"
     borderopacity="1"
     objecttolerance="10"
     gridtolerance="10"
     guidetolerance="10"
     inkscape:pageopacity="0"
     inkscape:pageshadow="2"
     inkscape:window-width="1920"
     inkscape:window-height="986"
     id="namedview59"
     showgrid="false"
     inkscape:zoom="0.64"
     inkscape:cx="5432.8001"
     inkscape:cy="4964.7612"
     inkscape:window-x="-11"
     inkscape:window-y="-11"
     inkscape:window-maximized="1"
     inkscape:current-layer="chains" />
  <metadata
     id="metadata57">
    <rdf:RDF>
      <cc:Work
         rdf:about="">
        <dc:format>image/svg+xml</dc:format>
        <dc:type
           rdf:resource="http://purl.org/dc/dcmitype/StillImage" />
      </cc:Work>
    </rdf:RDF>
  </metadata>
  <g
     inkscape:label="full-dove"
     id="full-dove"
     inkscape:groupmode="layer"
     style="display:inline">
     <path
       style="display:inline;opacity:1;stroke-width:45;stroke-linecap:butt;stroke-linejoin:miter;stroke-miterlimit:4;stroke-dasharray:none;"
       d="m 5412.5,3368.4375 32.0205,-6.902 8.6045,-27.473 -45.3125,-25 -38.8872,8.1798 -12.6753,23.0702 z"
       class="dove-eye" />
    <path
       id="full-dove-1"
       d="m 1378,6742 c -17,-11 -29,-28 -33,-49 -3,-18 -12,-39 -20,-47 -8,-7 -17,-29 -20,-46 -3,-18 -10,-41 -15,-50 -17,-31 -21,-230 -6,-290 8,-30 14,-77 15,-104 1,-28 4,-53 6,-57 3,-4 -10,-13 -27,-20 -18,-7 -46,-29 -63,-48 -16,-19 -36,-40 -43,-48 -7,-7 -10,-13 -5,-13 4,0 -1,-7 -11,-15 -11,-8 -16,-15 -12,-15 5,0 3,-6 -3,-13 -6,-8 -13,-24 -15,-38 -3,-13 -5,-24 -6,-24 -1,0 -4,-11 -6,-25 -2,-13 -9,-27 -15,-31 -6,-3 -10,-9 -10,-13 1,-3 1,-7 0,-8 -6,-22 -11,-51 -14,-83 -2,-22 -6,-66 -10,-97 -4,-32 -3,-63 2,-70 8,-14 9,-17 19,-63 4,-16 14,-36 21,-44 8,-7 12,-20 9,-27 -3,-8 -1,-14 5,-14 6,0 7,-5 4,-10 -3,-6 1,-13 9,-16 9,-3 14,-10 11,-15 -3,-4 4,-13 16,-19 15,-9 19,-17 15,-33 -4,-12 -9,-33 -12,-46 -3,-13 -12,-40 -20,-60 -19,-45 -23,-96 -12,-141 5,-19 10,-41 10,-47 1,-7 6,-13 11,-13 5,0 7,-7 3,-15 -7,-20 26,-75 79,-127 52,-53 85,-80 85,-71 0,3 9,-2 21,-13 11,-10 34,-19 50,-20 23,-1 33,5 45,27 8,16 19,29 25,29 6,0 8,4 5,8 -3,5 10,25 28,45 18,20 31,39 28,42 -3,3 0,5 6,5 7,0 12,6 12,13 0,7 13,23 29,37 17,13 28,27 25,31 -2,4 3,9 11,13 8,3 15,12 15,19 0,8 17,32 37,53 21,21 36,42 35,47 -1,4 5,7 13,7 8,0 15,7 15,15 0,9 11,20 25,27 13,6 22,15 19,20 -3,4 8,22 25,39 17,17 31,34 31,39 0,9 91,90 102,90 5,0 8,6 8,14 0,8 5,18 12,22 7,5 9,2 4,-7 -4,-8 2,-2 14,14 12,15 28,27 36,27 8,0 14,5 14,11 0,5 4,8 9,4 6,-3 14,3 20,12 6,10 11,15 11,11 0,-3 30,7 67,22 37,16 71,26 75,24 4,-3 8,-2 8,3 0,4 33,7 73,6 64,-2 162,-10 162,-13 0,-1 16,-3 35,-6 19,-2 37,-9 38,-14 2,-6 8,-8 13,-4 5,3 9,0 9,-6 0,-6 5,-8 10,-5 6,3 10,2 10,-2 0,-5 9,-14 21,-21 15,-10 19,-10 14,-1 -5,8 -4,10 3,5 7,-4 17,-16 23,-28 8,-15 8,-19 0,-14 -6,4 -14,0 -17,-8 -3,-9 -10,-13 -15,-10 -5,3 -9,0 -9,-6 0,-6 -4,-9 -9,-6 -5,4 -11,2 -13,-4 -1,-5 -12,-11 -23,-13 -11,-1 -26,-6 -33,-10 -6,-5 -12,-5 -12,0 0,4 -5,0 -11,-10 -6,-9 -14,-15 -20,-12 -5,4 -9,1 -9,-4 0,-6 -5,-11 -11,-11 -6,0 -17,-7 -26,-16 -9,-8 -21,-13 -27,-11 -6,3 -24,-11 -40,-29 -15,-19 -32,-32 -37,-29 -4,3 -13,-4 -19,-15 -6,-11 -14,-18 -19,-16 -4,3 -14,-10 -23,-29 -9,-20 -11,-32 -4,-29 6,3 0,-4 -14,-15 -14,-11 -28,-21 -32,-21 -5,0 -8,-7 -8,-15 0,-8 -4,-15 -10,-15 -5,0 -10,-6 -10,-13 0,-7 -9,-30 -21,-51 -12,-22 -23,-51 -26,-65 -5,-32 -12,-43 -24,-36 -5,4 -9,1 -9,-5 0,-6 -4,-8 -10,-5 -5,3 -10,2 -10,-3 0,-6 -11,-12 -24,-16 -29,-7 -111,-85 -120,-114 -4,-12 -12,-22 -17,-22 -5,0 -8,-3 -7,-7 2,-10 -34,-86 -45,-94 -9,-7 -27,-160 -20,-172 11,-18 14,-117 3,-117 -6,0 -8,-4 -5,-10 3,-5 0,-10 -7,-10 -16,0 -74,-60 -70,-73 1,-4 -2,-6 -6,-3 -5,3 -21,-8 -35,-25 -14,-17 -28,-30 -31,-30 -3,1 -6,-2 -7,-6 -1,-14 -32,-43 -45,-43 -7,0 -11,-6 -8,-14 3,-8 -3,-16 -16,-19 -12,-3 -19,-10 -16,-15 3,-6 -1,-13 -10,-16 -8,-3 -13,-10 -10,-15 3,-5 -7,-27 -24,-49 -16,-22 -26,-43 -23,-46 4,-3 1,-6 -5,-6 -7,0 -12,-9 -12,-20 0,-11 -5,-20 -11,-20 -6,0 -9,-7 -5,-15 3,-8 0,-28 -6,-43 -6,-15 -10,-33 -9,-41 1,-7 -1,-20 -5,-30 -13,-29 -15,-45 -17,-145 -2,-95 -2,-98 22,-107 27,-11 91,-5 121,11 11,6 20,9 20,6 0,-3 15,0 33,5 17,6 39,12 47,14 8,2 15,4 15,6 0,1 9,3 20,5 24,4 58,12 65,15 3,1 19,3 35,5 17,1 55,6 85,10 81,12 238,7 350,-10 14,-2 50,-7 80,-11 30,-4 57,-11 60,-15 5,-8 39,-13 190,-27 83,-7 263,-11 273,-6 4,3 40,6 80,8 40,2 90,6 112,10 23,3 63,8 90,10 28,2 64,6 80,9 17,4 53,9 80,11 28,3 70,8 95,11 25,2 65,7 90,10 62,6 105,12 108,14 1,2 5,3 10,4 4,1 23,7 43,14 20,7 47,15 60,17 25,5 72,49 62,59 -4,3 -1,6 6,6 7,0 9,5 6,10 -3,6 -1,10 5,10 6,0 9,4 5,9 -3,5 -1,12 5,16 6,4 8,11 5,16 -4,5 -1,9 5,9 5,0 18,16 27,35 9,19 22,35 29,35 7,0 16,5 20,12 5,7 2,8 -7,3 -8,-5 0,6 16,23 17,17 35,32 42,32 7,0 17,8 22,19 6,10 22,22 36,25 14,4 25,11 25,17 0,6 5,7 10,4 6,-3 10,-1 10,5 0,6 4,9 9,5 5,-3 16,2 24,10 9,8 28,20 44,26 36,15 113,20 113,7 0,-5 4,-7 9,-3 5,3 16,-2 25,-10 8,-9 18,-16 21,-15 26,1 35,-3 40,-20 4,-11 11,-18 16,-15 5,4 9,1 9,-5 0,-6 5,-8 10,-5 6,3 10,1 10,-5 0,-6 3,-9 8,-7 9,6 70,-53 74,-73 2,-8 11,-21 21,-28 9,-7 15,-17 12,-21 -2,-5 5,-17 16,-27 11,-10 18,-23 15,-29 -2,-6 5,-17 15,-24 11,-6 17,-16 14,-21 -3,-4 1,-15 9,-23 8,-8 13,-17 10,-19 -2,-3 11,-24 31,-48 19,-23 35,-51 35,-62 0,-12 4,-17 12,-12 8,5 9,2 5,-9 -3,-10 -2,-17 4,-17 6,0 7,-4 4,-10 -3,-5 -2,-10 4,-10 9,0 24,-33 26,-55 0,-5 5,-10 10,-10 6,0 33,-25 60,-55 28,-30 54,-56 58,-57 5,-1 17,-13 28,-27 11,-15 27,-26 35,-26 8,0 14,-4 14,-9 0,-5 14,-14 30,-21 17,-7 30,-16 30,-21 0,-5 3,-8 8,-7 12,2 62,-14 62,-21 0,-5 25,-18 70,-36 3,-1 19,-5 35,-9 17,-4 37,-10 45,-13 8,-4 18,-7 23,-8 4,-2 10,-4 15,-5 4,-1 10,-2 14,-1 4,0 20,-4 35,-10 15,-6 80,-13 143,-15 63,-2 148,-11 189,-19 40,-9 82,-13 92,-10 12,4 19,2 19,-6 0,-7 3,-9 7,-6 3,4 12,2 19,-4 12,-10 67,-18 159,-23 54,-3 105,35 100,75 -2,15 -10,38 -19,51 -8,13 -15,32 -14,43 1,25 -5,48 -14,55 -4,3 -9,15 -11,25 -1,11 -6,26 -11,33 -4,7 -10,28 -13,45 -3,18 -8,34 -11,37 -10,7 -11,18 -17,157 -6,141 -10,180 -20,212 -5,18 -11,41 -19,86 -1,6 -5,15 -8,21 -4,6 -9,21 -12,35 -2,13 -9,36 -15,52 -6,15 -8,27 -5,27 2,0 0,8 -5,18 -9,16 -13,39 -26,137 -2,17 -8,43 -15,59 -6,16 -9,31 -6,33 2,2 -5,32 -15,65 -10,34 -16,65 -13,70 3,4 1,8 -4,8 -5,0 -9,6 -10,13 -5,50 -35,195 -42,205 -2,1 -4,7 -5,12 -1,6 -3,11 -4,13 -0.8482,0.8482 -78.498,399.3938 -270.0471,764.0364 C 5120.8535,5922.1747 4675,6330 4675,6330 l -62,-94 c -75.5597,44.4261 0.8674,-6.9936 17.0927,-15.4282 103.2882,-53.6933 428.7727,-497.6246 657.4747,-880.415 C 5486.1329,5007.8075 5565.6922,4677.2061 5567,4665 c 3,-27 10,-53 17,-57 6,-4 7,-8 1,-8 -6,0 -5,-4 1,-8 6,-4 14,-27 17,-52 3,-25 10,-59 16,-77 5,-17 7,-34 3,-37 -3,-3 0,-6 7,-6 7,0 11,-8 10,-17 -1,-10 1,-29 5,-43 4,-14 9,-38 11,-55 2,-16 4,-31 6,-32 3,-5 5,-17 13,-68 4,-27 12,-65 18,-83 10,-33 14,-57 22,-122 3,-19 5,-35 6,-35 1,0 4,-11 7,-25 6,-31 8,-41 16,-60 3,-8 5,-22 6,-30 0,-8 3,-31 6,-50 3,-19 8,-51 11,-70 3,-19 6,-60 8,-90 2,-30 7,-66 11,-80 4,-14 9,-37 12,-52 3,-16 9,-28 14,-28 4,0 11,-17 15,-37 4,-20 15,-51 26,-69 10,-17 18,-36 17,-40 -1,-5 0,-12 1,-16 1,-5 4,-12 5,-18 1,-5 3,-11 5,-12 1,-2 3,-10 5,-18 2,-8 6,-23 10,-32 10,-26 -25,-40 -58,-23 -15,8 -27,11 -27,8 0,-3 -6,0 -13,6 -8,6 -17,8 -21,4 -4,-4 -11,-2 -15,5 -9,15 -106,18 -124,4 -43,-36 -285,-39 -427,-6 -14,3 -34,7 -45,9 -11,2 -21,4 -22,5 -2,2 -6,3 -10,5 -31,8 -83,37 -83,45 0,6 -5,10 -11,10 -14,0 -86,62 -107,91 -12,18 -13,21 -1,15 8,-4 3,2 -11,13 -14,11 -20,21 -15,21 6,0 4,4 -4,9 -8,5 -16,18 -17,27 -2,10 -10,24 -19,31 -10,6 -14,16 -10,22 3,6 1,11 -5,11 -7,0 -10,6 -7,13 2,6 -4,23 -14,36 -10,13 -16,27 -13,32 3,5 0,9 -5,9 -6,0 -11,8 -11,18 0,10 -7,28 -16,40 -8,12 -12,22 -9,22 3,0 -3,10 -14,22 -11,11 -18,25 -15,30 3,4 0,8 -6,8 -7,0 -9,7 -6,16 3,8 2,13 -3,10 -5,-3 -12,6 -17,22 -4,15 -8,29 -9,32 -1,3 -5,17 -9,33 -5,15 -11,27 -15,27 -8,0 -29,40 -27,50 0,3 -12,19 -29,36 -16,17 -37,39 -46,50 -23,27 -57,54 -69,54 -6,0 -10,5 -10,11 0,6 -7,9 -15,5 -8,-3 -15,-1 -15,4 0,6 -3,9 -7,9 -5,-1 -11,0 -15,1 -9,3 -12,4 -58,14 -19,5 -41,13 -47,18 -9,7 -13,7 -13,-2 0,-9 -3,-10 -14,-1 -13,11 -42,11 -61,-1 -5,-3 -32,-9 -60,-13 -27,-5 -52,-9 -55,-11 -22,-9 -50,-16 -54,-13 -3,2 -11,-4 -18,-14 -8,-10 -20,-19 -28,-20 -23,-4 -55,-25 -53,-34 2,-4 -4,-8 -13,-8 -8,0 -20,-9 -26,-20 -14,-24 -69,-71 -80,-68 -4,2 -7,-3 -5,-10 1,-6 -4,-11 -11,-9 -8,1 -11,-2 -8,-7 5,-8 -20,-36 -33,-36 -3,0 -5,-4 -3,-8 1,-4 -6,-11 -15,-14 -10,-4 -32,-22 -49,-40 -17,-19 -41,-35 -53,-36 -11,-1 -21,-5 -21,-9 0,-4 -10,-8 -23,-8 -13,0 -28,-5 -35,-12 -7,-7 -12,-8 -12,-4 0,5 -7,3 -15,-4 -8,-7 -15,-10 -15,-7 0,3 -15,1 -32,-5 -18,-5 -43,-11 -56,-13 -13,-2 -29,-9 -37,-15 -8,-7 -28,-10 -45,-8 -16,3 -30,1 -30,-4 0,-5 -19,-9 -42,-8 -24,0 -97,-2 -163,-5 -153,-8 -438,-8 -490,-1 -22,4 -57,8 -78,10 -21,2 -40,6 -43,9 -3,3 -12,3 -20,0 -8,-3 -27,0 -42,6 -15,6 -43,13 -62,15 -19,2 -53,6 -75,10 -22,4 -51,8 -65,11 -14,2 -25,4 -25,5 0,2 -23,6 -80,14 -22,4 -51,9 -65,11 -14,3 -47,7 -75,11 -27,3 -66,8 -85,12 -32,7 -232,7 -290,0 -22,-3 -25,1 -28,31 -4,41 37,181 55,188 7,3 10,9 7,14 -3,5 0,9 6,9 6,0 8,5 5,10 -3,6 -1,10 4,10 6,0 11,4 11,10 0,19 114,123 124,113 3,-4 6,-1 6,6 0,7 5,9 10,6 6,-3 10,-1 10,6 0,7 3,10 6,7 3,-4 25,2 48,13 24,10 63,21 87,24 24,3 64,9 88,14 25,5 50,7 57,4 16,-6 43,24 39,45 -7,37 -49,147 -59,158 -9,8 -25,7 -61,-3 -28,-8 -56,-14 -62,-15 -7,-1 -13,-5 -13,-9 0,-6 -44,-22 -46,-16 0,1 -9,-4 -18,-12 -22,-19 -36,-1 -30,38 2,14 6,40 7,56 7,57 31,120 60,158 16,21 31,36 34,33 3,-2 19,1 36,8 35,14 41,14 74,3 18,-7 29,-21 36,-47 2,-10 43,-48 77,-70 19,-13 42,-31 51,-39 30,-29 59,-51 59,-45 0,4 11,-1 25,-10 13,-9 33,-16 45,-16 11,0 20,-3 20,-7 0,-18 83,-13 114,7 18,11 36,17 39,13 4,-3 7,-1 7,5 0,7 6,12 13,12 30,0 61,126 38,154 -6,7 -8,15 -6,18 3,3 -10,21 -30,41 -19,19 -35,33 -35,30 0,-2 -15,10 -33,26 -17,17 -37,31 -43,31 -6,0 -17,7 -24,15 -7,9 -15,13 -18,11 -2,-3 -11,2 -19,10 -8,8 -19,12 -24,9 -5,-4 -9,-1 -9,5 0,6 -4,9 -9,6 -5,-4 -11,-1 -13,4 -2,6 -17,13 -33,16 -16,3 -32,9 -35,13 -3,5 -30,8 -60,7 -31,0 -55,3 -55,9 0,6 -4,16 -8,23 -5,6 -5,18 0,25 4,6 8,18 9,25 2,8 11,23 21,34 20,22 73,52 73,42 0,-4 8,0 18,9 10,10 22,14 25,10 4,-3 7,-2 7,4 0,10 51,27 78,26 6,0 12,3 12,9 0,5 6,8 13,7 6,-1 20,1 29,5 9,4 72,5 140,2 68,-3 134,-6 147,-6 13,0 29,-4 35,-9 6,-5 16,-10 21,-11 19,-2 60,-12 75,-17 8,-3 21,-7 29,-9 8,-1 17,-7 20,-12 6,-10 25,-15 51,-13 17,1 24,51 7,51 -6,0 -8,3 -4,6 3,4 -4,15 -16,26 -12,11 -15,17 -7,13 8,-4 6,1 -5,10 -11,9 -19,20 -18,25 2,5 -6,12 -17,15 -11,4 -20,12 -20,19 0,6 -6,18 -12,25 -7,6 -13,15 -13,19 0,4 -30,36 -65,71 -36,34 -58,60 -50,56 8,-4 4,3 -10,14 -14,11 -29,21 -34,21 -5,0 -6,3 -3,6 4,4 -11,16 -33,26 -22,11 -40,24 -40,29 0,5 -4,9 -10,9 -5,0 -18,7 -27,15 -10,8 -22,16 -28,16 -5,1 -39,10 -75,20 -139,40 -293,59 -330,39 -10,-5 -32,-11 -49,-12 -17,-1 -31,-6 -31,-10 0,-4 -3,-7 -7,-6 -5,1 -21,-4 -36,-10 -16,-7 -32,-12 -37,-12 -5,0 -14,-9 -20,-21 -7,-11 -14,-19 -16,-16 -6,6 -32,-16 -152,-132 -53,-52 -90,-91 -82,-87 8,4 1,-6 -17,-22 -17,-17 -29,-33 -26,-35 2,-3 -5,-10 -16,-17 -12,-6 -21,-17 -21,-25 0,-8 -7,-15 -15,-15 -8,0 -14,-4 -12,-8 2,-9 -56,-83 -103,-131 -14,-14 -25,-28 -26,-31 -4,-21 -26,-62 -30,-57 -8,7 -33,-16 -28,-25 3,-4 -4,-12 -15,-17 -10,-6 -21,-21 -25,-34 -3,-13 -11,-24 -18,-24 -7,0 -19,-2 -27,-4 -15,-4 -15,-3 -26,91 -9,86 -9,108 -1,150 4,19 8,45 9,57 2,33 48,94 87,116 40,22 82,58 75,65 -2,3 4,17 13,31 37,54 66,131 55,142 -15,15 -73,-19 -73,-43 0,-9 -9,-23 -20,-31 -11,-8 -17,-17 -13,-20 3,-4 1,-7 -5,-7 -7,0 -12,-7 -12,-15 0,-8 -5,-15 -10,-15 -6,0 -24,-13 -42,-30 -17,-16 -38,-30 -47,-31 -9,0 -29,-2 -44,-4 -18,-2 -35,3 -47,15 -10,10 -21,16 -24,13 -3,-4 -6,-1 -6,6 0,7 -5,9 -12,5 -7,-4 -10,-4 -6,1 4,4 1,20 -8,36 -8,16 -14,31 -14,34 -1,3 -3,12 -6,20 -4,8 -3,25 0,38 4,12 9,40 12,62 3,22 10,45 15,51 5,6 7,19 3,28 -3,9 -1,16 5,16 6,0 11,7 11,15 0,7 6,18 13,22 12,7 29,37 31,56 2,14 58,78 64,73 3,-3 11,3 19,14 9,12 20,17 31,13 26,-10 72,-50 65,-57 -4,-3 1,-6 10,-6 10,0 17,-4 17,-9 0,-5 12,-16 26,-26 18,-12 24,-13 19,-4 -3,8 0,6 8,-3 8,-10 17,-15 20,-12 3,3 15,-1 27,-9 15,-11 30,-13 50,-7 16,5 31,6 34,2 3,-3 14,4 24,16 11,12 21,19 24,17 2,-3 14,6 27,18 15,17 22,37 22,68 1,57 -2,67 -30,112 -21,35 -40,52 -26,25 4,-7 -4,-1 -17,13 -13,15 -33,30 -45,34 -13,3 -23,11 -23,16 0,6 -4,7 -10,4 -5,-3 -10,-1 -10,4 0,6 -5,11 -11,11 -6,0 -25,7 -42,14 -18,8 -63,19 -102,23 l -70,8 v 88 c 0,49 3,91 8,94 4,2 7,14 7,26 0,12 9,28 21,35 12,7 18,16 15,19 -8,8 33,53 48,53 5,0 20,10 33,22 13,12 23,16 23,10 0,-6 7,-9 15,-6 8,4 27,-2 43,-12 15,-10 33,-17 40,-16 6,2 12,-2 12,-8 0,-6 4,-9 8,-6 5,3 21,-2 36,-10 16,-7 37,-14 47,-14 11,0 19,-4 19,-10 0,-6 3,-9 8,-8 4,1 23,-3 42,-10 19,-6 47,-13 62,-16 15,-3 32,-7 37,-10 5,-3 43,-8 85,-10 42,-3 79,-7 83,-9 22,-13 458,-27 479,-15 5,2 30,4 57,3 26,0 47,3 47,7 0,4 3,7 8,7 4,-1 9,0 12,1 3,1 24,3 48,5 23,2 48,7 55,12 7,5 28,10 47,12 19,2 37,6 40,10 5,6 25,13 50,15 9,1 20,5 26,9 6,3 30,8 52,9 23,2 42,7 42,12 0,4 7,6 15,3 8,-4 17,-2 20,3 4,6 21,10 39,10 17,0 37,5 44,12 7,7 12,9 12,5 0,-4 10,-2 23,5 30,17 44,20 101,24 27,1 52,8 57,15 4,6 14,9 23,6 9,-4 16,-2 16,4 0,6 4,8 9,4 5,-3 13,0 16,6 4,5 13,8 21,5 7,-3 16,-1 19,4 3,5 13,9 23,9 9,0 33,3 52,6 19,3 45,6 58,6 12,1 22,5 22,9 0,9 163,4 225,-6 22,-4 51,-8 65,-10 55,-6 78,-12 140,-32 36,-12 68,-22 73,-22 4,0 21,-7 37,-15 17,-9 35,-13 40,-10 5,3 11,1 15,-5 4,-6 11,-8 16,-5 5,4 9,2 9,-4 0,-5 17,-15 38,-21 27.1744,-4.9687 83.2095,-34.1084 91,-35 32.8318,-19.6 161,-70.0703 161,-70.0703 L 4613,6236 v 0 l 62,94 c -95.5614,54.0839 -200.1028,109.4597 -294,154 -16,9 -31,12 -35,9 -3,-4 -6,-1 -6,6 0,7 -4,9 -10,6 -6,-3 -10,-1 -10,5 0,6 -4,8 -10,5 -6,-3 -10,-1 -10,5 0,6 -4,8 -10,5 -5,-3 -10,-1 -10,5 0,6 -4,8 -10,5 -6,-3 -10,-1 -10,4 0,6 -3,10 -7,9 -8,-2 -113,27 -143,39 -19,8 -39,12 -67,15 -13,1 -23,5 -23,8 0,3 -15,7 -33,8 -18,1 -44,5 -57,8 -36,7 -96,14 -160,18 -30,2 -73,7 -95,11 -51,8 -303,13 -310,7 -3,-3 -27,-7 -53,-8 -26,-1 -78,-5 -117,-8 -38,-4 -96,-8 -127,-10 -31,-2 -62,-8 -70,-12 -7,-5 -20,-9 -28,-11 -83,-11 -100,-16 -100,-24 0,-6 -4,-8 -8,-5 -5,3 -21,-1 -36,-9 -27,-14 -94,-31 -108,-27 -5,1 -8,-3 -8,-9 0,-5 -4,-7 -10,-4 -5,3 -10,1 -10,-5 0,-7 -7,-10 -15,-6 -8,3 -15,1 -15,-5 0,-6 -4,-8 -8,-5 -5,3 -20,-1 -35,-9 -15,-8 -27,-12 -27,-9 0,2 -10,-2 -23,-11 -12,-8 -32,-16 -42,-18 -25,-4 -132,-36 -163,-48 -13,-5 -28,-7 -33,-4 -5,4 -9,2 -9,-3 0,-5 -12,-11 -27,-13 -64,-8 -380,1 -432,12 -31,6 -66,11 -78,11 -13,0 -23,4 -23,9 0,5 -6,6 -14,3 -7,-3 -21,2 -30,11 -9,9 -16,14 -16,10 0,-3 -10,0 -22,7 -13,7 -26,12 -31,13 -4,0 -23,12 -41,28 -19,15 -40,27 -45,27 -6,0 -17,14 -26,30 -9,17 -20,30 -26,30 -6,0 -8,4 -5,9 4,5 3,11 -2,13 -4,1 -19,29 -32,62 -31,73 -54,90 -92,68 z m 132,-752 c 35,0 77,-35 85,-72 8,-32 -23,-68 -57,-68 -32,1 -84,48 -102,92 -14,34 -13,38 2,48 9,5 23,7 30,5 8,-3 27,-5 42,-5 z m 852,-1153 c 73,-34 93,-58 82,-98 -13,-45 -31,-53 -84,-39 -67,18 -173,130 -154,162 10,16 96,2 156,-25 z"
       inkscape:connector-curvature="0" />
  </g>
  <g
     inkscape:label="part-dove"
     id="part-dove"
     inkscape:groupmode="layer"
     style="display:inline">

     <path
       style="display:inline;opacity:1;stroke-width:45;stroke-linecap:butt;stroke-linejoin:miter;stroke-miterlimit:4;stroke-dasharray:none;"
       d="m 5412.5,3368.4375 32.0205,-6.902 8.6045,-27.473 -45.3125,-25 -38.8872,8.1798 -12.6753,23.0702 z"
       class="dove-eye" />

    <path
       id="path3878"
       d="m 1378,6742 c -17,-11 -29,-28 -33,-49 -3,-18 -12,-39 -20,-47 -8,-7 -17,-29 -20,-46 -3,-18 -10,-41 -15,-50 -17,-31 -21,-230 -6,-290 8,-30 14,-77 15,-104 1,-28 4,-53 6,-57 3,-4 -10,-13 -27,-20 -18,-7 -46,-29 -63,-48 -16,-19 -36,-40 -43,-48 -7,-7 -10,-13 -5,-13 4,0 -1,-7 -11,-15 -11,-8 -16,-15 -12,-15 5,0 3,-6 -3,-13 -6,-8 -13,-24 -15,-38 -3,-13 -5,-24 -6,-24 -1,0 -4,-11 -6,-25 -2,-13 -9,-27 -15,-31 -6,-3 -10,-9 -10,-13 1,-3 1,-7 0,-8 -6,-22 -11,-51 -14,-83 -2,-22 -6,-66 -10,-97 -4,-32 -3,-63 2,-70 8,-14 9,-17 19,-63 4,-16 14,-36 21,-44 8,-7 12,-20 9,-27 -3,-8 -1,-14 5,-14 6,0 7,-5 4,-10 -3,-6 1,-13 9,-16 9,-3 14,-10 11,-15 -3,-4 4,-13 16,-19 15,-9 19,-17 15,-33 -4,-12 -9,-33 -12,-46 -3,-13 -12,-40 -20,-60 -19,-45 -23,-96 -12,-141 5,-19 10,-41 10,-47 1,-7 6,-13 11,-13 5,0 7,-7 3,-15 -7,-20 26,-75 79,-127 52,-53 85,-80 85,-71 0,3 9,-2 21,-13 11,-10 34,-19 50,-20 23,-1 33,5 45,27 8,16 19,29 25,29 6,0 8,4 5,8 -3,5 10,25 28,45 18,20 31,39 28,42 -3,3 0,5 6,5 7,0 12,6 12,13 0,7 13,23 29,37 17,13 28,27 25,31 -2,4 3,9 11,13 8,3 15,12 15,19 0,8 17,32 37,53 21,21 36,42 35,47 -1,4 5,7 13,7 8,0 15,7 15,15 0,9 11,20 25,27 13,6 22,15 19,20 -3,4 8,22 25,39 17,17 31,34 31,39 0,9 91,90 102,90 5,0 8,6 8,14 0,8 5,18 12,22 7,5 9,2 4,-7 -4,-8 2,-2 14,14 12,15 28,27 36,27 8,0 14,5 14,11 0,5 4,8 9,4 6,-3 14,3 20,12 6,10 11,15 11,11 0,-3 30,7 67,22 37,16 71,26 75,24 4,-3 8,-2 8,3 0,4 33,7 73,6 64,-2 162,-10 162,-13 0,-1 16,-3 35,-6 19,-2 37,-9 38,-14 2,-6 8,-8 13,-4 5,3 9,0 9,-6 0,-6 5,-8 10,-5 6,3 10,2 10,-2 0,-5 9,-14 21,-21 15,-10 19,-10 14,-1 -5,8 -4,10 3,5 7,-4 17,-16 23,-28 8,-15 8,-19 0,-14 -6,4 -14,0 -17,-8 -3,-9 -10,-13 -15,-10 -5,3 -9,0 -9,-6 0,-6 -4,-9 -9,-6 -5,4 -11,2 -13,-4 -1,-5 -12,-11 -23,-13 -11,-1 -26,-6 -33,-10 -6,-5 -12,-5 -12,0 0,4 -5,0 -11,-10 -6,-9 -14,-15 -20,-12 -5,4 -9,1 -9,-4 0,-6 -5,-11 -11,-11 -6,0 -17,-7 -26,-16 -9,-8 -21,-13 -27,-11 -6,3 -24,-11 -40,-29 -15,-19 -32,-32 -37,-29 -4,3 -13,-4 -19,-15 -6,-11 -14,-18 -19,-16 -4,3 -14,-10 -23,-29 -9,-20 -11,-32 -4,-29 6,3 0,-4 -14,-15 -14,-11 -28,-21 -32,-21 -5,0 -8,-7 -8,-15 0,-8 -4,-15 -10,-15 -5,0 -10,-6 -10,-13 0,-7 -9,-30 -21,-51 -12,-22 -23,-51 -26,-65 -5,-32 -12,-43 -24,-36 -5,4 -9,1 -9,-5 0,-6 -4,-8 -10,-5 -5,3 -10,2 -10,-3 0,-6 -11,-12 -24,-16 -29,-7 -111,-85 -120,-114 -4,-12 -12,-22 -17,-22 -5,0 -8,-3 -7,-7 2,-10 -34,-86 -45,-94 -9,-7 -27,-160 -20,-172 11,-18 14,-117 3,-117 -6,0 -8,-4 -5,-10 3,-5 0,-10 -7,-10 -16,0 -74,-60 -70,-73 1,-4 -2,-6 -6,-3 -5,3 -21,-8 -35,-25 -14,-17 -28,-30 -31,-30 -3,1 -6,-2 -7,-6 -1,-14 -32,-43 -45,-43 -7,0 -11,-6 -8,-14 3,-8 -3,-16 -16,-19 -12,-3 -19,-10 -16,-15 3,-6 -1,-13 -10,-16 -8,-3 -13,-10 -10,-15 3,-5 -7,-27 -24,-49 -16,-22 -26,-43 -23,-46 4,-3 1,-6 -5,-6 -7,0 -12,-9 -12,-20 0,-11 -5,-20 -11,-20 -6,0 -9,-7 -5,-15 3,-8 0,-28 -6,-43 -6,-15 -10,-33 -9,-41 1,-7 -1,-20 -5,-30 -13,-29 -15,-45 -17,-145 -2,-95 -2,-98 22,-107 27,-11 91,-5 121,11 11,6 20,9 20,6 0,-3 15,0 33,5 17,6 39,12 47,14 8,2 15,4 15,6 0,1 9,3 20,5 24,4 58,12 65,15 3,1 19,3 35,5 17,1 55,6 85,10 81,12 238,7 350,-10 14,-2 50,-7 80,-11 30,-4 57,-11 60,-15 5,-8 39,-13 190,-27 83,-7 263,-11 273,-6 4,3 40,6 80,8 40,2 90,6 112,10 23,3 63,8 90,10 28,2 64,6 80,9 17,4 53,9 80,11 28,3 70,8 95,11 25,2 65,7 90,10 62,6 105,12 108,14 1,2 5,3 10,4 4,1 23,7 43,14 20,7 47,15 60,17 25,5 72,49 62,59 -4,3 -1,6 6,6 7,0 9,5 6,10 -3,6 -1,10 5,10 6,0 9,4 5,9 -3,5 -1,12 5,16 6,4 8,11 5,16 -4,5 -1,9 5,9 5,0 18,16 27,35 9,19 22,35 29,35 7,0 16,5 20,12 5,7 2,8 -7,3 -8,-5 0,6 16,23 17,17 35,32 42,32 7,0 17,8 22,19 6,10 22,22 36,25 14,4 25,11 25,17 0,6 5,7 10,4 6,-3 10,-1 10,5 0,6 4,9 9,5 5,-3 16,2 24,10 9,8 28,20 44,26 36,15 113,20 113,7 0,-5 4,-7 9,-3 5,3 16,-2 25,-10 8,-9 18,-16 21,-15 26,1 35,-3 40,-20 4,-11 11,-18 16,-15 5,4 9,1 9,-5 0,-6 5,-8 10,-5 6,3 10,1 10,-5 0,-6 3,-9 8,-7 9,6 70,-53 74,-73 2,-8 11,-21 21,-28 9,-7 15,-17 12,-21 -2,-5 5,-17 16,-27 11,-10 18,-23 15,-29 -2,-6 5,-17 15,-24 11,-6 17,-16 14,-21 -3,-4 1,-15 9,-23 8,-8 13,-17 10,-19 -2,-3 11,-24 31,-48 19,-23 35,-51 35,-62 0,-12 4,-17 12,-12 8,5 9,2 5,-9 -3,-10 -2,-17 4,-17 6,0 7,-4 4,-10 -3,-5 -2,-10 4,-10 9,0 24,-33 26,-55 0,-5 5,-10 10,-10 6,0 33,-25 60,-55 28,-30 54,-56 58,-57 5,-1 17,-13 28,-27 11,-15 27,-26 35,-26 8,0 14,-4 14,-9 0,-5 14,-14 30,-21 17,-7 30,-16 30,-21 0,-5 3,-8 8,-7 12,2 62,-14 62,-21 0,-5 25,-18 70,-36 3,-1 19,-5 35,-9 17,-4 37,-10 45,-13 8,-4 18,-7 23,-8 4,-2 10,-4 15,-5 4,-1 10,-2 14,-1 4,0 20,-4 35,-10 15,-6 80,-13 143,-15 63,-2 148,-11 189,-19 40,-9 82,-13 92,-10 12,4 19,2 19,-6 0,-7 3,-9 7,-6 3,4 12,2 19,-4 12,-10 67,-18 159,-23 54,-3 105,35 100,75 -2,15 -10,38 -19,51 -8,13 -15,32 -14,43 1,25 -5,48 -14,55 -4,3 -9,15 -11,25 -1,11 -6,26 -11,33 -4,7 -10,28 -13,45 -3,18 -8,34 -11,37 -10,7 -11,18 -17,157 -6,141 -10,180 -20,212 -5,18 -11,41 -19,86 -1,6 -5,15 -8,21 -4,6 -9,21 -12,35 -2,13 -9,36 -15,52 -6,15 -8,27 -5,27 2,0 0,8 -5,18 -9,16 -13,39 -26,137 -2,17 -8,43 -15,59 -6,16 -9,31 -6,33 2,2 -5,32 -15,65 -10,34 -16,65 -13,70 3,4 1,8 -4,8 -5,0 -9,6 -10,13 -5,50 -35,195 -42,205 -2,1 -4,7 -5,12 -1,6 -3,11 -4,13 -0.8482,0.8482 -68.4112,241.9927 -68.4112,241.9927 -84.7955,70.2483 -59.002,-36.9571 -15.5888,-239.9927 3,-27 10,-53 17,-57 6,-4 7,-8 1,-8 -6,0 -5,-4 1,-8 6,-4 14,-27 17,-52 3,-25 10,-59 16,-77 5,-17 7,-34 3,-37 -3,-3 0,-6 7,-6 7,0 11,-8 10,-17 -1,-10 1,-29 5,-43 4,-14 9,-38 11,-55 2,-16 4,-31 6,-32 3,-5 5,-17 13,-68 4,-27 12,-65 18,-83 10,-33 14,-57 22,-122 3,-19 5,-35 6,-35 1,0 4,-11 7,-25 6,-31 8,-41 16,-60 3,-8 5,-22 6,-30 0,-8 3,-31 6,-50 3,-19 8,-51 11,-70 3,-19 6,-60 8,-90 2,-30 7,-66 11,-80 4,-14 9,-37 12,-52 3,-16 9,-28 14,-28 4,0 11,-17 15,-37 4,-20 15,-51 26,-69 10,-17 18,-36 17,-40 -1,-5 0,-12 1,-16 1,-5 4,-12 5,-18 1,-5 3,-11 5,-12 1,-2 3,-10 5,-18 2,-8 6,-23 10,-32 10,-26 -25,-40 -58,-23 -15,8 -27,11 -27,8 0,-3 -6,0 -13,6 -8,6 -17,8 -21,4 -4,-4 -11,-2 -15,5 -9,15 -106,18 -124,4 -43,-36 -285,-39 -427,-6 -14,3 -34,7 -45,9 -11,2 -21,4 -22,5 -2,2 -6,3 -10,5 -31,8 -83,37 -83,45 0,6 -5,10 -11,10 -14,0 -86,62 -107,91 -12,18 -13,21 -1,15 8,-4 3,2 -11,13 -14,11 -20,21 -15,21 6,0 4,4 -4,9 -8,5 -16,18 -17,27 -2,10 -10,24 -19,31 -10,6 -14,16 -10,22 3,6 1,11 -5,11 -7,0 -10,6 -7,13 2,6 -4,23 -14,36 -10,13 -16,27 -13,32 3,5 0,9 -5,9 -6,0 -11,8 -11,18 0,10 -7,28 -16,40 -8,12 -12,22 -9,22 3,0 -3,10 -14,22 -11,11 -18,25 -15,30 3,4 0,8 -6,8 -7,0 -9,7 -6,16 3,8 2,13 -3,10 -5,-3 -12,6 -17,22 -4,15 -8,29 -9,32 -1,3 -5,17 -9,33 -5,15 -11,27 -15,27 -8,0 -29,40 -27,50 0,3 -12,19 -29,36 -16,17 -37,39 -46,50 -23,27 -57,54 -69,54 -6,0 -10,5 -10,11 0,6 -7,9 -15,5 -8,-3 -15,-1 -15,4 0,6 -3,9 -7,9 -5,-1 -11,0 -15,1 -9,3 -12,4 -58,14 -19,5 -41,13 -47,18 -9,7 -13,7 -13,-2 0,-9 -3,-10 -14,-1 -13,11 -42,11 -61,-1 -5,-3 -32,-9 -60,-13 -27,-5 -52,-9 -55,-11 -22,-9 -50,-16 -54,-13 -3,2 -11,-4 -18,-14 -8,-10 -20,-19 -28,-20 -23,-4 -55,-25 -53,-34 2,-4 -4,-8 -13,-8 -8,0 -20,-9 -26,-20 -14,-24 -69,-71 -80,-68 -4,2 -7,-3 -5,-10 1,-6 -4,-11 -11,-9 -8,1 -11,-2 -8,-7 5,-8 -20,-36 -33,-36 -3,0 -5,-4 -3,-8 1,-4 -6,-11 -15,-14 -10,-4 -32,-22 -49,-40 -17,-19 -41,-35 -53,-36 -11,-1 -21,-5 -21,-9 0,-4 -10,-8 -23,-8 -13,0 -28,-5 -35,-12 -7,-7 -12,-8 -12,-4 0,5 -7,3 -15,-4 -8,-7 -15,-10 -15,-7 0,3 -15,1 -32,-5 -18,-5 -43,-11 -56,-13 -13,-2 -29,-9 -37,-15 -8,-7 -28,-10 -45,-8 -16,3 -30,1 -30,-4 0,-5 -19,-9 -42,-8 -24,0 -97,-2 -163,-5 -153,-8 -438,-8 -490,-1 -22,4 -57,8 -78,10 -21,2 -40,6 -43,9 -3,3 -12,3 -20,0 -8,-3 -27,0 -42,6 -15,6 -43,13 -62,15 -19,2 -53,6 -75,10 -22,4 -51,8 -65,11 -14,2 -25,4 -25,5 0,2 -23,6 -80,14 -22,4 -51,9 -65,11 -14,3 -47,7 -75,11 -27,3 -66,8 -85,12 -32,7 -232,7 -290,0 -22,-3 -25,1 -28,31 -4,41 37,181 55,188 7,3 10,9 7,14 -3,5 0,9 6,9 6,0 8,5 5,10 -3,6 -1,10 4,10 6,0 11,4 11,10 0,19 114,123 124,113 3,-4 6,-1 6,6 0,7 5,9 10,6 6,-3 10,-1 10,6 0,7 3,10 6,7 3,-4 25,2 48,13 24,10 63,21 87,24 24,3 64,9 88,14 25,5 50,7 57,4 16,-6 43,24 39,45 -7,37 -49,147 -59,158 -9,8 -25,7 -61,-3 -28,-8 -56,-14 -62,-15 -7,-1 -13,-5 -13,-9 0,-6 -44,-22 -46,-16 0,1 -9,-4 -18,-12 -22,-19 -36,-1 -30,38 2,14 6,40 7,56 7,57 31,120 60,158 16,21 31,36 34,33 3,-2 19,1 36,8 35,14 41,14 74,3 18,-7 29,-21 36,-47 2,-10 43,-48 77,-70 19,-13 42,-31 51,-39 30,-29 59,-51 59,-45 0,4 11,-1 25,-10 13,-9 33,-16 45,-16 11,0 20,-3 20,-7 0,-18 83,-13 114,7 18,11 36,17 39,13 4,-3 7,-1 7,5 0,7 6,12 13,12 30,0 61,126 38,154 -6,7 -8,15 -6,18 3,3 -10,21 -30,41 -19,19 -35,33 -35,30 0,-2 -15,10 -33,26 -17,17 -37,31 -43,31 -6,0 -17,7 -24,15 -7,9 -15,13 -18,11 -2,-3 -11,2 -19,10 -8,8 -19,12 -24,9 -5,-4 -9,-1 -9,5 0,6 -4,9 -9,6 -5,-4 -11,-1 -13,4 -2,6 -17,13 -33,16 -16,3 -32,9 -35,13 -3,5 -30,8 -60,7 -31,0 -55,3 -55,9 0,6 -4,16 -8,23 -5,6 -5,18 0,25 4,6 8,18 9,25 2,8 11,23 21,34 20,22 73,52 73,42 0,-4 8,0 18,9 10,10 22,14 25,10 4,-3 7,-2 7,4 0,10 51,27 78,26 6,0 12,3 12,9 0,5 6,8 13,7 6,-1 20,1 29,5 9,4 72,5 140,2 68,-3 134,-6 147,-6 13,0 29,-4 35,-9 6,-5 16,-10 21,-11 19,-2 60,-12 75,-17 8,-3 21,-7 29,-9 8,-1 17,-7 20,-12 6,-10 25,-15 51,-13 17,1 24,51 7,51 -6,0 -8,3 -4,6 3,4 -4,15 -16,26 -12,11 -15,17 -7,13 8,-4 6,1 -5,10 -11,9 -19,20 -18,25 2,5 -6,12 -17,15 -11,4 -20,12 -20,19 0,6 -6,18 -12,25 -7,6 -13,15 -13,19 0,4 -30,36 -65,71 -36,34 -58,60 -50,56 8,-4 4,3 -10,14 -14,11 -29,21 -34,21 -5,0 -6,3 -3,6 4,4 -11,16 -33,26 -22,11 -40,24 -40,29 0,5 -4,9 -10,9 -5,0 -18,7 -27,15 -10,8 -22,16 -28,16 -5,1 -39,10 -75,20 -139,40 -293,59 -330,39 -10,-5 -32,-11 -49,-12 -17,-1 -31,-6 -31,-10 0,-4 -3,-7 -7,-6 -5,1 -21,-4 -36,-10 -16,-7 -32,-12 -37,-12 -5,0 -14,-9 -20,-21 -7,-11 -14,-19 -16,-16 -6,6 -32,-16 -152,-132 -53,-52 -90,-91 -82,-87 8,4 1,-6 -17,-22 -17,-17 -29,-33 -26,-35 2,-3 -5,-10 -16,-17 -12,-6 -21,-17 -21,-25 0,-8 -7,-15 -15,-15 -8,0 -14,-4 -12,-8 2,-9 -56,-83 -103,-131 -14,-14 -25,-28 -26,-31 -4,-21 -26,-62 -30,-57 -8,7 -33,-16 -28,-25 3,-4 -4,-12 -15,-17 -10,-6 -21,-21 -25,-34 -3,-13 -11,-24 -18,-24 -7,0 -19,-2 -27,-4 -15,-4 -15,-3 -26,91 -9,86 -9,108 -1,150 4,19 8,45 9,57 2,33 48,94 87,116 40,22 82,58 75,65 -2,3 4,17 13,31 37,54 66,131 55,142 -15,15 -73,-19 -73,-43 0,-9 -9,-23 -20,-31 -11,-8 -17,-17 -13,-20 3,-4 1,-7 -5,-7 -7,0 -12,-7 -12,-15 0,-8 -5,-15 -10,-15 -6,0 -24,-13 -42,-30 -17,-16 -38,-30 -47,-31 -9,0 -29,-2 -44,-4 -18,-2 -35,3 -47,15 -10,10 -21,16 -24,13 -3,-4 -6,-1 -6,6 0,7 -5,9 -12,5 -7,-4 -10,-4 -6,1 4,4 1,20 -8,36 -8,16 -14,31 -14,34 -1,3 -3,12 -6,20 -4,8 -3,25 0,38 4,12 9,40 12,62 3,22 10,45 15,51 5,6 7,19 3,28 -3,9 -1,16 5,16 6,0 11,7 11,15 0,7 6,18 13,22 12,7 29,37 31,56 2,14 58,78 64,73 3,-3 11,3 19,14 9,12 20,17 31,13 26,-10 72,-50 65,-57 -4,-3 1,-6 10,-6 10,0 17,-4 17,-9 0,-5 12,-16 26,-26 18,-12 24,-13 19,-4 -3,8 0,6 8,-3 8,-10 17,-15 20,-12 3,3 15,-1 27,-9 15,-11 30,-13 50,-7 16,5 31,6 34,2 3,-3 14,4 24,16 11,12 21,19 24,17 2,-3 14,6 27,18 15,17 22,37 22,68 1,57 -2,67 -30,112 -21,35 -40,52 -26,25 4,-7 -4,-1 -17,13 -13,15 -33,30 -45,34 -13,3 -23,11 -23,16 0,6 -4,7 -10,4 -5,-3 -10,-1 -10,4 0,6 -5,11 -11,11 -6,0 -25,7 -42,14 -18,8 -63,19 -102,23 l -70,8 v 88 c 0,49 3,91 8,94 4,2 7,14 7,26 0,12 9,28 21,35 12,7 18,16 15,19 -8,8 33,53 48,53 5,0 20,10 33,22 13,12 23,16 23,10 0,-6 7,-9 15,-6 8,4 27,-2 43,-12 15,-10 33,-17 40,-16 6,2 12,-2 12,-8 0,-6 4,-9 8,-6 5,3 21,-2 36,-10 16,-7 37,-14 47,-14 11,0 19,-4 19,-10 0,-6 3,-9 8,-8 4,1 23,-3 42,-10 19,-6 47,-13 62,-16 15,-3 32,-7 37,-10 5,-3 43,-8 85,-10 42,-3 79,-7 83,-9 22,-13 458,-27 479,-15 5,2 30,4 57,3 26,0 47,3 47,7 0,4 3,7 8,7 4,-1 9,0 12,1 3,1 24,3 48,5 23,2 48,7 55,12 7,5 28,10 47,12 19,2 37,6 40,10 5,6 25,13 50,15 9,1 20,5 26,9 6,3 30,8 52,9 23,2 42,7 42,12 0,4 7,6 15,3 8,-4 17,-2 20,3 4,6 21,10 39,10 17,0 37,5 44,12 7,7 12,9 12,5 0,-4 10,-2 23,5 30,17 44,20 101,24 27,1 52,8 57,15 4,6 14,9 23,6 9,-4 16,-2 16,4 0,6 4,8 9,4 5,-3 13,0 16,6 4,5 13,8 21,5 7,-3 16,-1 19,4 3,5 13,9 23,9 9,0 33,3 52,6 19,3 45,6 58,6 12,1 22,5 22,9 0,9 163,4 225,-6 22,-4 51,-8 65,-10 55,-6 78,-12 140,-32 36,-12 68,-22 73,-22 4,0 21,-7 37,-15 17,-9 35,-13 40,-10 5,3 11,1 15,-5 4,-6 11,-8 16,-5 5,4 9,2 9,-4 0,-5 17,-15 38,-21 27.1744,-4.9687 83.2095,-34.1084 91,-35 32.8318,-19.6 161,-70.0703 161,-70.0703 l 38.0781,-14.5156 198.735,-88.8623 c 72.3116,14.0542 -8.1888,80.0102 22.2435,99.2992 -95.5614,54.0839 -314.1594,168.6087 -408.0566,213.149 -16,9 -31,12 -35,9 -3,-4 -6,-1 -6,6 0,7 -4,9 -10,6 -6,-3 -10,-1 -10,5 0,6 -4,8 -10,5 -6,-3 -10,-1 -10,5 0,6 -4,8 -10,5 -5,-3 -10,-1 -10,5 0,6 -4,8 -10,5 -6,-3 -10,-1 -10,4 0,6 -3,10 -7,9 -8,-2 -113,27 -143,39 -19,8 -39,12 -67,15 -13,1 -23,5 -23,8 0,3 -15,7 -33,8 -18,1 -44,5 -57,8 -36,7 -96,14 -160,18 -30,2 -73,7 -95,11 -51,8 -303,13 -310,7 -3,-3 -27,-7 -53,-8 -26,-1 -78,-5 -117,-8 -38,-4 -96,-8 -127,-10 -31,-2 -62,-8 -70,-12 -7,-5 -20,-9 -28,-11 -83,-11 -100,-16 -100,-24 0,-6 -4,-8 -8,-5 -5,3 -21,-1 -36,-9 -27,-14 -94,-31 -108,-27 -5,1 -8,-3 -8,-9 0,-5 -4,-7 -10,-4 -5,3 -10,1 -10,-5 0,-7 -7,-10 -15,-6 -8,3 -15,1 -15,-5 0,-6 -4,-8 -8,-5 -5,3 -20,-1 -35,-9 -15,-8 -27,-12 -27,-9 0,2 -10,-2 -23,-11 -12,-8 -32,-16 -42,-18 -25,-4 -132,-36 -163,-48 -13,-5 -28,-7 -33,-4 -5,4 -9,2 -9,-3 0,-5 -12,-11 -27,-13 -64,-8 -380,1 -432,12 -31,6 -66,11 -78,11 -13,0 -23,4 -23,9 0,5 -6,6 -14,3 -7,-3 -21,2 -30,11 -9,9 -16,14 -16,10 0,-3 -10,0 -22,7 -13,7 -26,12 -31,13 -4,0 -23,12 -41,28 -19,15 -40,27 -45,27 -6,0 -17,14 -26,30 -9,17 -20,30 -26,30 -6,0 -8,4 -5,9 4,5 3,11 -2,13 -4,1 -19,29 -32,62 -31,73 -54,90 -92,68 z m 132,-752 c 35,0 77,-35 85,-72 8,-32 -23,-68 -57,-68 -32,1 -84,48 -102,92 -14,34 -13,38 2,48 9,5 23,7 30,5 8,-3 27,-5 42,-5 z m 852,-1153 c 73,-34 93,-58 82,-98 -13,-45 -31,-53 -84,-39 -67,18 -173,130 -154,162 10,16 96,2 156,-25 z"
       inkscape:connector-curvature="0" />
    <path
       id="path7"
       d="m 1378,6742 c -17,-11 -29,-28 -33,-49 -3,-18 -12,-39 -20,-47 -8,-7 -17,-29 -20,-46 -3,-18 -10,-41 -15,-50 -17,-31 -21,-230 -6,-290 8,-30 14,-77 15,-104 1,-28 4,-53 6,-57 3,-4 -10,-13 -27,-20 -18,-7 -46,-29 -63,-48 -16,-19 -36,-40 -43,-48 -7,-7 -10,-13 -5,-13 4,0 -1,-7 -11,-15 -11,-8 -16,-15 -12,-15 5,0 3,-6 -3,-13 -6,-8 -13,-24 -15,-38 -3,-13 -5,-24 -6,-24 -1,0 -4,-11 -6,-25 -2,-13 -9,-27 -15,-31 -6,-3 -10,-9 -10,-13 1,-3 1,-7 0,-8 -6,-22 -11,-51 -14,-83 -2,-22 -6,-66 -10,-97 -4,-32 -3,-63 2,-70 8,-14 9,-17 19,-63 4,-16 14,-36 21,-44 8,-7 12,-20 9,-27 -3,-8 -1,-14 5,-14 6,0 7,-5 4,-10 -3,-6 1,-13 9,-16 9,-3 14,-10 11,-15 -3,-4 4,-13 16,-19 15,-9 19,-17 15,-33 -4,-12 -9,-33 -12,-46 -3,-13 -12,-40 -20,-60 -19,-45 -23,-96 -12,-141 5,-19 10,-41 10,-47 1,-7 6,-13 11,-13 5,0 7,-7 3,-15 -7,-20 26,-75 79,-127 52,-53 85,-80 85,-71 0,3 9,-2 21,-13 11,-10 34,-19 50,-20 23,-1 33,5 45,27 8,16 19,29 25,29 6,0 8,4 5,8 -3,5 10,25 28,45 18,20 31,39 28,42 -3,3 0,5 6,5 7,0 12,6 12,13 0,7 13,23 29,37 17,13 28,27 25,31 -2,4 3,9 11,13 8,3 15,12 15,19 0,8 17,32 37,53 21,21 36,42 35,47 -1,4 5,7 13,7 8,0 15,7 15,15 0,9 11,20 25,27 13,6 22,15 19,20 -3,4 8,22 25,39 17,17 31,34 31,39 0,9 91,90 102,90 5,0 8,6 8,14 0,8 5,18 12,22 7,5 9,2 4,-7 -4,-8 2,-2 14,14 12,15 28,27 36,27 8,0 14,5 14,11 0,5 4,8 9,4 6,-3 14,3 20,12 6,10 11,15 11,11 0,-3 30,7 67,22 37,16 71,26 75,24 4,-3 8,-2 8,3 0,4 33,7 73,6 64,-2 162,-10 162,-13 0,-1 16,-3 35,-6 19,-2 37,-9 38,-14 2,-6 8,-8 13,-4 5,3 9,0 9,-6 0,-6 5,-8 10,-5 6,3 10,2 10,-2 0,-5 9,-14 21,-21 15,-10 19,-10 14,-1 -5,8 -4,10 3,5 7,-4 17,-16 23,-28 8,-15 8,-19 0,-14 -6,4 -14,0 -17,-8 -3,-9 -10,-13 -15,-10 -5,3 -9,0 -9,-6 0,-6 -4,-9 -9,-6 -5,4 -11,2 -13,-4 -1,-5 -12,-11 -23,-13 -11,-1 -26,-6 -33,-10 -6,-5 -12,-5 -12,0 0,4 -5,0 -11,-10 -6,-9 -14,-15 -20,-12 -5,4 -9,1 -9,-4 0,-6 -5,-11 -11,-11 -6,0 -17,-7 -26,-16 -9,-8 -21,-13 -27,-11 -6,3 -24,-11 -40,-29 -15,-19 -32,-32 -37,-29 -4,3 -13,-4 -19,-15 -6,-11 -14,-18 -19,-16 -4,3 -14,-10 -23,-29 -9,-20 -11,-32 -4,-29 6,3 0,-4 -14,-15 -14,-11 -28,-21 -32,-21 -5,0 -8,-7 -8,-15 0,-8 -4,-15 -10,-15 -5,0 -10,-6 -10,-13 0,-7 -9,-30 -21,-51 -12,-22 -23,-51 -26,-65 -5,-32 -12,-43 -24,-36 -5,4 -9,1 -9,-5 0,-6 -4,-8 -10,-5 -5,3 -10,2 -10,-3 0,-6 -11,-12 -24,-16 -29,-7 -111,-85 -120,-114 -4,-12 -12,-22 -17,-22 -5,0 -8,-3 -7,-7 2,-10 -34,-86 -45,-94 -9,-7 -27,-160 -20,-172 11,-18 14,-117 3,-117 -6,0 -8,-4 -5,-10 3,-5 0,-10 -7,-10 -16,0 -74,-60 -70,-73 1,-4 -2,-6 -6,-3 -5,3 -21,-8 -35,-25 -14,-17 -28,-30 -31,-30 -3,1 -6,-2 -7,-6 -1,-14 -32,-43 -45,-43 -7,0 -11,-6 -8,-14 3,-8 -3,-16 -16,-19 -12,-3 -19,-10 -16,-15 3,-6 -1,-13 -10,-16 -8,-3 -13,-10 -10,-15 3,-5 -7,-27 -24,-49 -16,-22 -26,-43 -23,-46 4,-3 1,-6 -5,-6 -7,0 -12,-9 -12,-20 0,-11 -5,-20 -11,-20 -6,0 -9,-7 -5,-15 3,-8 0,-28 -6,-43 -6,-15 -10,-33 -9,-41 1,-7 -1,-20 -5,-30 -13,-29 -15,-45 -17,-145 -2,-95 -2,-98 22,-107 27,-11 91,-5 121,11 11,6 20,9 20,6 0,-3 15,0 33,5 17,6 39,12 47,14 8,2 15,4 15,6 0,1 9,3 20,5 24,4 58,12 65,15 3,1 19,3 35,5 17,1 55,6 85,10 81,12 238,7 350,-10 14,-2 50,-7 80,-11 30,-4 57,-11 60,-15 5,-8 39,-13 190,-27 83,-7 263,-11 273,-6 4,3 40,6 80,8 40,2 90,6 112,10 23,3 63,8 90,10 28,2 64,6 80,9 17,4 53,9 80,11 28,3 70,8 95,11 25,2 65,7 90,10 62,6 105,12 108,14 1,2 5,3 10,4 4,1 23,7 43,14 20,7 47,15 60,17 25,5 72,49 62,59 -4,3 -1,6 6,6 7,0 9,5 6,10 -3,6 -1,10 5,10 6,0 9,4 5,9 -3,5 -1,12 5,16 6,4 8,11 5,16 -4,5 -1,9 5,9 5,0 18,16 27,35 9,19 22,35 29,35 7,0 16,5 20,12 5,7 2,8 -7,3 -8,-5 0,6 16,23 17,17 35,32 42,32 7,0 17,8 22,19 6,10 22,22 36,25 14,4 25,11 25,17 0,6 5,7 10,4 6,-3 10,-1 10,5 0,6 4,9 9,5 5,-3 16,2 24,10 9,8 28,20 44,26 36,15 113,20 113,7 0,-5 4,-7 9,-3 5,3 16,-2 25,-10 8,-9 18,-16 21,-15 26,1 35,-3 40,-20 4,-11 11,-18 16,-15 5,4 9,1 9,-5 0,-6 5,-8 10,-5 6,3 10,1 10,-5 0,-6 3,-9 8,-7 9,6 70,-53 74,-73 2,-8 11,-21 21,-28 9,-7 15,-17 12,-21 -2,-5 5,-17 16,-27 11,-10 18,-23 15,-29 -2,-6 5,-17 15,-24 11,-6 17,-16 14,-21 -3,-4 1,-15 9,-23 8,-8 13,-17 10,-19 -2,-3 11,-24 31,-48 19,-23 35,-51 35,-62 0,-12 4,-17 12,-12 8,5 9,2 5,-9 -3,-10 -2,-17 4,-17 6,0 7,-4 4,-10 -3,-5 -2,-10 4,-10 9,0 24,-33 26,-55 0,-5 5,-10 10,-10 6,0 33,-25 60,-55 28,-30 54,-56 58,-57 5,-1 17,-13 28,-27 11,-15 27,-26 35,-26 8,0 14,-4 14,-9 0,-5 14,-14 30,-21 17,-7 30,-16 30,-21 0,-5 3,-8 8,-7 12,2 62,-14 62,-21 0,-5 25,-18 70,-36 3,-1 19,-5 35,-9 17,-4 37,-10 45,-13 8,-4 18,-7 23,-8 4,-2 10,-4 15,-5 4,-1 10,-2 14,-1 4,0 20,-4 35,-10 15,-6 80,-13 143,-15 63,-2 148,-11 189,-19 40,-9 82,-13 92,-10 12,4 19,2 19,-6 0,-7 3,-9 7,-6 3,4 12,2 19,-4 12,-10 67,-18 159,-23 54,-3 105,35 100,75 -2,15 -10,38 -19,51 -8,13 -15,32 -14,43 1,25 -5,48 -14,55 -4,3 -9,15 -11,25 -1,11 -6,26 -11,33 -4,7 -10,28 -13,45 -3,18 -8,34 -11,37 -10,7 -11,18 -17,157 -6,141 -10,180 -20,212 -5,18 -11,41 -19,86 -1,6 -5,15 -8,21 -4,6 -9,21 -12,35 -2,13 -9,36 -15,52 -6,15 -8,27 -5,27 2,0 0,8 -5,18 -9,16 -13,39 -26,137 -2,17 -8,43 -15,59 -6,16 -9,31 -6,33 2,2 -5,32 -15,65 -10,34 -16,65 -13,70 3,4 1,8 -4,8 -5,0 -9,6 -10,13 -5,50 -35,195 -42,205 -2,1 -4,7 -5,12 -1,6 -3,11 -4,13 -0.8482,0.8482 -68.4112,241.9927 -68.4112,241.9927 -84.7955,70.2483 -59.002,-36.9571 -15.5888,-239.9927 3,-27 10,-53 17,-57 6,-4 7,-8 1,-8 -6,0 -5,-4 1,-8 6,-4 14,-27 17,-52 3,-25 10,-59 16,-77 5,-17 7,-34 3,-37 -3,-3 0,-6 7,-6 7,0 11,-8 10,-17 -1,-10 1,-29 5,-43 4,-14 9,-38 11,-55 2,-16 4,-31 6,-32 3,-5 5,-17 13,-68 4,-27 12,-65 18,-83 10,-33 14,-57 22,-122 3,-19 5,-35 6,-35 1,0 4,-11 7,-25 6,-31 8,-41 16,-60 3,-8 5,-22 6,-30 0,-8 3,-31 6,-50 3,-19 8,-51 11,-70 3,-19 6,-60 8,-90 2,-30 7,-66 11,-80 4,-14 9,-37 12,-52 3,-16 9,-28 14,-28 4,0 11,-17 15,-37 4,-20 15,-51 26,-69 10,-17 18,-36 17,-40 -1,-5 0,-12 1,-16 1,-5 4,-12 5,-18 1,-5 3,-11 5,-12 1,-2 3,-10 5,-18 2,-8 6,-23 10,-32 10,-26 -25,-40 -58,-23 -15,8 -27,11 -27,8 0,-3 -6,0 -13,6 -8,6 -17,8 -21,4 -4,-4 -11,-2 -15,5 -9,15 -106,18 -124,4 -43,-36 -285,-39 -427,-6 -14,3 -34,7 -45,9 -11,2 -21,4 -22,5 -2,2 -6,3 -10,5 -31,8 -83,37 -83,45 0,6 -5,10 -11,10 -14,0 -86,62 -107,91 -12,18 -13,21 -1,15 8,-4 3,2 -11,13 -14,11 -20,21 -15,21 6,0 4,4 -4,9 -8,5 -16,18 -17,27 -2,10 -10,24 -19,31 -10,6 -14,16 -10,22 3,6 1,11 -5,11 -7,0 -10,6 -7,13 2,6 -4,23 -14,36 -10,13 -16,27 -13,32 3,5 0,9 -5,9 -6,0 -11,8 -11,18 0,10 -7,28 -16,40 -8,12 -12,22 -9,22 3,0 -3,10 -14,22 -11,11 -18,25 -15,30 3,4 0,8 -6,8 -7,0 -9,7 -6,16 3,8 2,13 -3,10 -5,-3 -12,6 -17,22 -4,15 -8,29 -9,32 -1,3 -5,17 -9,33 -5,15 -11,27 -15,27 -8,0 -29,40 -27,50 0,3 -12,19 -29,36 -16,17 -37,39 -46,50 -23,27 -57,54 -69,54 -6,0 -10,5 -10,11 0,6 -7,9 -15,5 -8,-3 -15,-1 -15,4 0,6 -3,9 -7,9 -5,-1 -11,0 -15,1 -9,3 -12,4 -58,14 -19,5 -41,13 -47,18 -9,7 -13,7 -13,-2 0,-9 -3,-10 -14,-1 -13,11 -42,11 -61,-1 -5,-3 -32,-9 -60,-13 -27,-5 -52,-9 -55,-11 -22,-9 -50,-16 -54,-13 -3,2 -11,-4 -18,-14 -8,-10 -20,-19 -28,-20 -23,-4 -55,-25 -53,-34 2,-4 -4,-8 -13,-8 -8,0 -20,-9 -26,-20 -14,-24 -69,-71 -80,-68 -4,2 -7,-3 -5,-10 1,-6 -4,-11 -11,-9 -8,1 -11,-2 -8,-7 5,-8 -20,-36 -33,-36 -3,0 -5,-4 -3,-8 1,-4 -6,-11 -15,-14 -10,-4 -32,-22 -49,-40 -17,-19 -41,-35 -53,-36 -11,-1 -21,-5 -21,-9 0,-4 -10,-8 -23,-8 -13,0 -28,-5 -35,-12 -7,-7 -12,-8 -12,-4 0,5 -7,3 -15,-4 -8,-7 -15,-10 -15,-7 0,3 -15,1 -32,-5 -18,-5 -43,-11 -56,-13 -13,-2 -29,-9 -37,-15 -8,-7 -28,-10 -45,-8 -16,3 -30,1 -30,-4 0,-5 -19,-9 -42,-8 -24,0 -97,-2 -163,-5 -153,-8 -438,-8 -490,-1 -22,4 -57,8 -78,10 -21,2 -40,6 -43,9 -3,3 -12,3 -20,0 -8,-3 -27,0 -42,6 -15,6 -43,13 -62,15 -19,2 -53,6 -75,10 -22,4 -51,8 -65,11 -14,2 -25,4 -25,5 0,2 -23,6 -80,14 -22,4 -51,9 -65,11 -14,3 -47,7 -75,11 -27,3 -66,8 -85,12 -32,7 -232,7 -290,0 -22,-3 -25,1 -28,31 -4,41 37,181 55,188 7,3 10,9 7,14 -3,5 0,9 6,9 6,0 8,5 5,10 -3,6 -1,10 4,10 6,0 11,4 11,10 0,19 114,123 124,113 3,-4 6,-1 6,6 0,7 5,9 10,6 6,-3 10,-1 10,6 0,7 3,10 6,7 3,-4 25,2 48,13 24,10 63,21 87,24 24,3 64,9 88,14 25,5 50,7 57,4 16,-6 43,24 39,45 -7,37 -49,147 -59,158 -9,8 -25,7 -61,-3 -28,-8 -56,-14 -62,-15 -7,-1 -13,-5 -13,-9 0,-6 -44,-22 -46,-16 0,1 -9,-4 -18,-12 -22,-19 -36,-1 -30,38 2,14 6,40 7,56 7,57 31,120 60,158 16,21 31,36 34,33 3,-2 19,1 36,8 35,14 41,14 74,3 18,-7 29,-21 36,-47 2,-10 43,-48 77,-70 19,-13 42,-31 51,-39 30,-29 59,-51 59,-45 0,4 11,-1 25,-10 13,-9 33,-16 45,-16 11,0 20,-3 20,-7 0,-18 83,-13 114,7 18,11 36,17 39,13 4,-3 7,-1 7,5 0,7 6,12 13,12 30,0 61,126 38,154 -6,7 -8,15 -6,18 3,3 -10,21 -30,41 -19,19 -35,33 -35,30 0,-2 -15,10 -33,26 -17,17 -37,31 -43,31 -6,0 -17,7 -24,15 -7,9 -15,13 -18,11 -2,-3 -11,2 -19,10 -8,8 -19,12 -24,9 -5,-4 -9,-1 -9,5 0,6 -4,9 -9,6 -5,-4 -11,-1 -13,4 -2,6 -17,13 -33,16 -16,3 -32,9 -35,13 -3,5 -30,8 -60,7 -31,0 -55,3 -55,9 0,6 -4,16 -8,23 -5,6 -5,18 0,25 4,6 8,18 9,25 2,8 11,23 21,34 20,22 73,52 73,42 0,-4 8,0 18,9 10,10 22,14 25,10 4,-3 7,-2 7,4 0,10 51,27 78,26 6,0 12,3 12,9 0,5 6,8 13,7 6,-1 20,1 29,5 9,4 72,5 140,2 68,-3 134,-6 147,-6 13,0 29,-4 35,-9 6,-5 16,-10 21,-11 19,-2 60,-12 75,-17 8,-3 21,-7 29,-9 8,-1 17,-7 20,-12 6,-10 25,-15 51,-13 17,1 24,51 7,51 -6,0 -8,3 -4,6 3,4 -4,15 -16,26 -12,11 -15,17 -7,13 8,-4 6,1 -5,10 -11,9 -19,20 -18,25 2,5 -6,12 -17,15 -11,4 -20,12 -20,19 0,6 -6,18 -12,25 -7,6 -13,15 -13,19 0,4 -30,36 -65,71 -36,34 -58,60 -50,56 8,-4 4,3 -10,14 -14,11 -29,21 -34,21 -5,0 -6,3 -3,6 4,4 -11,16 -33,26 -22,11 -40,24 -40,29 0,5 -4,9 -10,9 -5,0 -18,7 -27,15 -10,8 -22,16 -28,16 -5,1 -39,10 -75,20 -139,40 -293,59 -330,39 -10,-5 -32,-11 -49,-12 -17,-1 -31,-6 -31,-10 0,-4 -3,-7 -7,-6 -5,1 -21,-4 -36,-10 -16,-7 -32,-12 -37,-12 -5,0 -14,-9 -20,-21 -7,-11 -14,-19 -16,-16 -6,6 -32,-16 -152,-132 -53,-52 -90,-91 -82,-87 8,4 1,-6 -17,-22 -17,-17 -29,-33 -26,-35 2,-3 -5,-10 -16,-17 -12,-6 -21,-17 -21,-25 0,-8 -7,-15 -15,-15 -8,0 -14,-4 -12,-8 2,-9 -56,-83 -103,-131 -14,-14 -25,-28 -26,-31 -4,-21 -26,-62 -30,-57 -8,7 -33,-16 -28,-25 3,-4 -4,-12 -15,-17 -10,-6 -21,-21 -25,-34 -3,-13 -11,-24 -18,-24 -7,0 -19,-2 -27,-4 -15,-4 -15,-3 -26,91 -9,86 -9,108 -1,150 4,19 8,45 9,57 2,33 48,94 87,116 40,22 82,58 75,65 -2,3 4,17 13,31 37,54 66,131 55,142 -15,15 -73,-19 -73,-43 0,-9 -9,-23 -20,-31 -11,-8 -17,-17 -13,-20 3,-4 1,-7 -5,-7 -7,0 -12,-7 -12,-15 0,-8 -5,-15 -10,-15 -6,0 -24,-13 -42,-30 -17,-16 -38,-30 -47,-31 -9,0 -29,-2 -44,-4 -18,-2 -35,3 -47,15 -10,10 -21,16 -24,13 -3,-4 -6,-1 -6,6 0,7 -5,9 -12,5 -7,-4 -10,-4 -6,1 4,4 1,20 -8,36 -8,16 -14,31 -14,34 -1,3 -3,12 -6,20 -4,8 -3,25 0,38 4,12 9,40 12,62 3,22 10,45 15,51 5,6 7,19 3,28 -3,9 -1,16 5,16 6,0 11,7 11,15 0,7 6,18 13,22 12,7 29,37 31,56 2,14 58,78 64,73 3,-3 11,3 19,14 9,12 20,17 31,13 26,-10 72,-50 65,-57 -4,-3 1,-6 10,-6 10,0 17,-4 17,-9 0,-5 12,-16 26,-26 18,-12 24,-13 19,-4 -3,8 0,6 8,-3 8,-10 17,-15 20,-12 3,3 15,-1 27,-9 15,-11 30,-13 50,-7 16,5 31,6 34,2 3,-3 14,4 24,16 11,12 21,19 24,17 2,-3 14,6 27,18 15,17 22,37 22,68 1,57 -2,67 -30,112 -21,35 -40,52 -26,25 4,-7 -4,-1 -17,13 -13,15 -33,30 -45,34 -13,3 -23,11 -23,16 0,6 -4,7 -10,4 -5,-3 -10,-1 -10,4 0,6 -5,11 -11,11 -6,0 -25,7 -42,14 -18,8 -63,19 -102,23 l -70,8 v 88 c 0,49 3,91 8,94 4,2 7,14 7,26 0,12 9,28 21,35 12,7 18,16 15,19 -8,8 33,53 48,53 5,0 20,10 33,22 13,12 23,16 23,10 0,-6 7,-9 15,-6 8,4 27,-2 43,-12 15,-10 33,-17 40,-16 6,2 12,-2 12,-8 0,-6 4,-9 8,-6 5,3 21,-2 36,-10 16,-7 37,-14 47,-14 11,0 19,-4 19,-10 0,-6 3,-9 8,-8 4,1 23,-3 42,-10 19,-6 47,-13 62,-16 15,-3 32,-7 37,-10 5,-3 43,-8 85,-10 42,-3 79,-7 83,-9 22,-13 458,-27 479,-15 5,2 30,4 57,3 26,0 47,3 47,7 0,4 3,7 8,7 4,-1 9,0 12,1 3,1 24,3 48,5 23,2 48,7 55,12 7,5 28,10 47,12 19,2 37,6 40,10 5,6 25,13 50,15 9,1 20,5 26,9 6,3 30,8 52,9 23,2 42,7 42,12 0,4 7,6 15,3 8,-4 17,-2 20,3 4,6 21,10 39,10 17,0 37,5 44,12 7,7 12,9 12,5 0,-4 10,-2 23,5 30,17 44,20 101,24 27,1 52,8 57,15 4,6 14,9 23,6 9,-4 16,-2 16,4 0,6 4,8 9,4 5,-3 13,0 16,6 4,5 13,8 21,5 7,-3 16,-1 19,4 3,5 13,9 23,9 9,0 33,3 52,6 19,3 45,6 58,6 12,1 22,5 22,9 0,9 163,4 225,-6 22,-4 51,-8 65,-10 55,-6 78,-12 140,-32 36,-12 68,-22 73,-22 4,0 21,-7 37,-15 17,-9 35,-13 40,-10 5,3 11,1 15,-5 4,-6 11,-8 16,-5 5,4 9,2 9,-4 0,-5 17,-15 38,-21 27.1744,-4.9687 83.2095,-34.1084 91,-35 32.8318,-19.6 161,-70.0703 161,-70.0703 l 38.0781,-14.5156 198.735,-88.8623 c 72.3116,14.0542 -8.1888,80.0102 22.2435,99.2992 -95.5614,54.0839 -314.1594,168.6087 -408.0566,213.149 -16,9 -31,12 -35,9 -3,-4 -6,-1 -6,6 0,7 -4,9 -10,6 -6,-3 -10,-1 -10,5 0,6 -4,8 -10,5 -6,-3 -10,-1 -10,5 0,6 -4,8 -10,5 -5,-3 -10,-1 -10,5 0,6 -4,8 -10,5 -6,-3 -10,-1 -10,4 0,6 -3,10 -7,9 -8,-2 -113,27 -143,39 -19,8 -39,12 -67,15 -13,1 -23,5 -23,8 0,3 -15,7 -33,8 -18,1 -44,5 -57,8 -36,7 -96,14 -160,18 -30,2 -73,7 -95,11 -51,8 -303,13 -310,7 -3,-3 -27,-7 -53,-8 -26,-1 -78,-5 -117,-8 -38,-4 -96,-8 -127,-10 -31,-2 -62,-8 -70,-12 -7,-5 -20,-9 -28,-11 -83,-11 -100,-16 -100,-24 0,-6 -4,-8 -8,-5 -5,3 -21,-1 -36,-9 -27,-14 -94,-31 -108,-27 -5,1 -8,-3 -8,-9 0,-5 -4,-7 -10,-4 -5,3 -10,1 -10,-5 0,-7 -7,-10 -15,-6 -8,3 -15,1 -15,-5 0,-6 -4,-8 -8,-5 -5,3 -20,-1 -35,-9 -15,-8 -27,-12 -27,-9 0,2 -10,-2 -23,-11 -12,-8 -32,-16 -42,-18 -25,-4 -132,-36 -163,-48 -13,-5 -28,-7 -33,-4 -5,4 -9,2 -9,-3 0,-5 -12,-11 -27,-13 -64,-8 -380,1 -432,12 -31,6 -66,11 -78,11 -13,0 -23,4 -23,9 0,5 -6,6 -14,3 -7,-3 -21,2 -30,11 -9,9 -16,14 -16,10 0,-3 -10,0 -22,7 -13,7 -26,12 -31,13 -4,0 -23,12 -41,28 -19,15 -40,27 -45,27 -6,0 -17,14 -26,30 -9,17 -20,30 -26,30 -6,0 -8,4 -5,9 4,5 3,11 -2,13 -4,1 -19,29 -32,62 -31,73 -54,90 -92,68 z m 132,-752 c 35,0 77,-35 85,-72 8,-32 -23,-68 -57,-68 -32,1 -84,48 -102,92 -14,34 -13,38 2,48 9,5 23,7 30,5 8,-3 27,-5 42,-5 z m 852,-1153 c 73,-34 93,-58 82,-98 -13,-45 -31,-53 -84,-39 -67,18 -173,130 -154,162 10,16 96,2 156,-25 z"
       inkscape:connector-curvature="0" />

  </g>
  <g
     inkscape:label="words"
     id="words"
     inkscape:groupmode="layer"
     style="display:inline">
    <path
       d="m 5148,6565 c -2,-2 -40,-5 -85,-6 -73,-2 -89,-6 -150,-38 -56,-31 -73,-46 -95,-87 -15,-27 -33,-65 -39,-84 -18,-57 -19,-188 -2,-260 8,-36 16,-69 17,-75 1,-5 7,-20 14,-32 7,-12 12,-27 12,-34 0,-34 172,-239 200,-239 6,0 10,-4 10,-9 0,-4 -55,-9 -122,-9 -68,0 -157,-3 -198,-6 -41,-3 -96,-5 -122,-5 l -48,-1 43,-45 c 39,-41 48,-45 90,-45 38,0 51,-5 82,-34 20,-19 37,-38 37,-43 0,-4 4,-18 9,-31 9,-22 17,-57 24,-97 2,-11 6,-33 10,-50 3,-16 8,-39 10,-50 4,-25 13,-72 20,-105 3,-14 7,-36 10,-50 3,-14 7,-36 10,-50 3,-14 7,-36 10,-50 3,-14 7,-36 11,-50 9,-39 13,-62 19,-97 2,-17 5,-35 6,-40 5,-26 -3,-33 -33,-30 -47,5 -128,30 -128,39 0,4 -4,8 -9,8 -12,0 -91,77 -92,90 -2,12 -5,27 -9,38 -6,14 -8,28 -9,58 -1,25 -8,33 -46,52 -25,12 -50,22 -56,22 -22,0 11,-138 42,-174 19,-22 76,-79 91,-91 13,-10 78,-42 88,-43 3,0 19,-6 35,-12 17,-7 41,-14 55,-16 14,-2 40,-7 59,-10 39,-6 414,-6 451,1 14,2 32,6 40,8 8,3 29,8 46,12 17,4 54,28 81,54 69,64 93,134 88,263 -2,51 -10,118 -19,148 -9,30 -18,60 -19,65 -16,64 -152,223 -227,265 -23,13 -11,17 70,24 67,5 89,8 140,21 8,2 18,4 22,4 9,1 4,23 -16,79 -8,23 -13,42 -9,42 3,0 0,7 -7,15 -7,8 -9,15 -4,15 13,0 -19,20 -33,20 -7,0 -9,-13 -6,-37 4,-31 0,-43 -21,-65 -14,-16 -29,-28 -35,-28 -5,0 -11,-4 -13,-9 -8,-23 -184,-36 -228,-18 -14,5 -32,11 -40,13 -8,2 -16,8 -18,13 -2,6 -10,11 -17,11 -22,0 -125,107 -125,129 0,5 -4,11 -9,13 -11,4 -74,128 -65,128 4,0 2,6 -4,13 -6,7 -13,24 -16,37 -3,14 -8,36 -11,50 -21,83 -26,122 -21,184 4,38 10,74 13,80 4,6 8,17 9,23 8,53 104,136 170,149 36,7 173,0 214,-11 14,-3 30,-7 35,-8 6,-2 16,-6 23,-10 6,-5 12,-5 12,-1 0,3 6,2 13,-3 6,-6 24,-13 39,-17 25,-6 26,-4 19,22 -4,15 -10,26 -14,25 -4,-1 -30,7 -59,18 -29,11 -61,22 -70,25 -52,13 -66,16 -93,20 -16,3 -35,7 -42,9 -6,2 -13,2 -15,0 z m 19,-936 c 21,-5 46,-12 57,-14 60,-14 144,-104 194,-208 59,-122 66,-153 66,-297 0,-82 -4,-114 -18,-145 -27,-56 -64,-105 -82,-105 -7,0 -14,-4 -14,-10 0,-32 -306,-71 -307,-38 0,7 -3,27 -7,43 -3,17 -8,41 -11,55 -3,14 -7,36 -11,50 -3,14 -8,36 -10,50 -3,14 -7,32 -8,40 -2,8 -6,26 -9,40 -4,14 -9,41 -12,60 -2,19 -7,46 -10,60 -3,14 -7,36 -10,50 -9,46 -23,104 -25,108 -2,1 -3,5 -5,10 -4,14 -35,77 -48,96 -16,25 -67,76 -75,76 -14,1 -62,57 -49,58 6,1 23,4 37,6 14,3 45,8 70,11 24,4 46,8 48,9 7,8 206,3 239,-5 z"
       id="words-1"
       inkscape:connector-curvature="0" />
    <path
       d="m 5571,6525 c -27,-23 -29,-31 -27,-74 4,-58 14,-91 27,-91 5,0 9,-4 9,-9 0,-16 57,-67 89,-80 17,-8 43,-10 60,-6 28,6 31,10 31,43 -1,30 -28,105 -30,80 0,-5 -9,1 -20,12 -11,11 -40,22 -68,26 -49,6 -49,6 -46,42 3,45 28,65 74,58 l 35,-5 -30,14 c -44,21 -70,18 -104,-10 z m 116,-130 c 42,-28 45,-108 5,-113 -36,-5 -85,52 -96,112 -5,26 -4,27 32,21 20,-3 47,-12 59,-20 z"
       id="path11"
       inkscape:connector-curvature="0" />
    <path
       d="m 5852,6520 c 5,-14 12,-38 14,-55 7,-41 12,-63 23,-108 15,-64 0,-91 -37,-64 -9,7 -11,6 -6,-6 8,-21 84,-34 95,-16 8,13 7,25 -6,89 -2,13 1,27 7,31 8,5 6,12 -5,24 -10,9 -17,19 -18,23 0,4 -2,14 -5,22 -2,8 -7,30 -11,49 -7,28 -13,34 -35,35 -24,1 -25,-1 -16,-24 z"
       id="words-3"
       inkscape:connector-curvature="0" />
    <path
       d="m 6051,6536 c -13,-16 -11,-52 9,-131 5,-22 10,-57 10,-77 0,-32 -3,-36 -22,-33 -26,5 -78,53 -78,72 0,7 -5,13 -10,13 -31,0 65,-106 105,-116 40,-10 57,11 52,67 -3,26 -7,51 -10,56 -3,5 -8,28 -11,51 -2,24 -10,50 -18,59 -9,12 -9,15 0,9 8,-4 12,-1 12,10 0,12 6,15 21,11 13,-3 18,-2 13,3 -19,18 -60,22 -73,6 z"
       id="words-4"
       inkscape:connector-curvature="0" />
    <path
       d="m 6250,6540 c -10,-6 -14,-23 -12,-52 2,-43 3,-51 21,-143 14,-71 14,-72 -11,-70 -13,1 -15,0 -5,-2 20,-5 49,-45 45,-63 -2,-6 7,-16 20,-21 24,-9 25,-6 22,48 -1,29 1,31 35,31 20,0 39,3 42,6 4,3 -15,6 -40,6 -26,0 -47,3 -48,8 0,4 -3,16 -5,27 -3,11 -7,29 -9,40 -2,11 -10,51 -18,88 -17,78 -11,87 43,69 44,-16 37,0 -10,21 -46,20 -50,20 -70,7 z"
       id="words-5"
       inkscape:connector-curvature="0" />
    <path
       d="m 6484,6526 c -53,-45 -36,-142 38,-216 15,-15 29,-26 31,-24 2,3 10,-2 17,-11 19,-23 63,-18 90,9 12,14 20,31 18,38 -3,7 -7,18 -9,23 -6,19 -72,75 -89,75 -9,0 -31,5 -49,11 -29,10 -32,14 -25,43 13,61 38,70 112,36 23,-10 42,-16 42,-12 0,10 -106,52 -130,52 -10,0 -31,-11 -46,-24 z m 112,-131 c 38,-25 42,-108 6,-113 -37,-6 -109,87 -96,122 7,19 56,14 90,-9 z"
       id="path12"
       inkscape:connector-curvature="0" />
    <path
       d="m 6766,6530 c 3,-8 7,-19 8,-25 1,-5 5,-19 9,-30 3,-11 9,-38 12,-60 3,-22 8,-59 11,-82 5,-38 4,-43 -14,-43 -10,0 -32,9 -48,21 -16,11 -12,5 10,-15 42,-38 76,-46 96,-21 11,13 10,33 -6,118 -2,10 1,15 8,11 5,-4 4,4 -3,17 -7,13 -14,29 -15,34 -2,6 -5,20 -8,33 -11,50 -16,57 -41,57 -18,0 -24,-4 -19,-15 z"
       id="path14"
       inkscape:connector-curvature="0" />
    <path
       d="m 5710,6515 c 0,-2 15,-12 33,-20 l 32,-16 -25,20 c -24,20 -40,26 -40,16 z"
       id="path16"
       inkscape:connector-curvature="0" />
    <path
       d="m 6867,6378 c 5,-7 19,-30 31,-50 13,-20 32,-40 43,-43 10,-4 19,-10 19,-14 0,-4 17,-8 37,-9 l 37,-3 -22,24 c -12,13 -32,23 -45,22 -22,-2 -87,55 -87,75 0,6 -5,10 -10,10 -7,0 -8,-5 -3,-12 z"
       id="path18"
       inkscape:connector-curvature="0" />
    <path
       d="m 5738,5679 c -32,-12 -52,-62 -45,-111 3,-18 6,-34 7,-35 2,-2 3,-6 4,-10 1,-5 13,-25 25,-46 27,-44 90,-79 133,-75 39,4 53,25 44,69 -7,37 -51,73 -103,84 l -28,6 30,-14 c 17,-8 36,-21 43,-30 21,-24 24,-70 8,-92 -14,-19 -17,-19 -42,-5 -60,33 -92,146 -60,209 19,36 57,42 106,16 41,-21 38,-12 -4,13 -44,26 -84,33 -118,21 z"
       id="path20"
       inkscape:connector-curvature="0" />
    <path
       d="m 6005,5674 c -16,-16 -16,-32 1,-119 2,-11 6,-31 9,-45 11,-54 17,-85 20,-95 1,-5 6,-25 10,-42 4,-18 12,-33 17,-33 5,0 6,-4 3,-10 -3,-5 -1,-10 4,-10 6,0 11,-5 11,-10 0,-19 61,-70 90,-75 3,-1 20,-5 37,-9 40,-9 59,0 43,19 -8,9 -22,12 -41,8 -16,-3 -42,0 -58,7 -25,10 -33,23 -50,78 -11,37 -23,85 -27,107 -9,56 -11,64 -23,115 -6,25 -11,55 -11,68 0,26 28,41 40,21 5,-7 11,-11 15,-8 7,8 -25,35 -51,43 -14,4 -28,1 -39,-10 z"
       id="path22"
       inkscape:connector-curvature="0" />
    <path
       d="m 6205,5674 c -14,-15 -15,-69 -1,-93 4,-5 13,-67 19,-116 1,-14 -5,-21 -22,-23 l -23,-4 27,-14 c 40,-21 86,-27 80,-12 -2,7 -7,27 -10,43 -4,17 -8,39 -11,50 -6,28 -12,63 -19,113 -6,37 -4,42 12,42 10,0 24,-5 31,-12 7,-7 12,-9 12,-5 0,8 -60,47 -72,47 -4,0 -14,-7 -23,-16 z"
       id="path24"
       inkscape:connector-curvature="0" />
    <path
       d="m 6783,5674 c -49,-25 -57,-100 -19,-174 20,-37 61,-80 77,-80 5,0 9,-5 9,-11 0,-5 4,-8 9,-4 5,3 12,2 15,-3 8,-13 68,-5 77,10 19,30 1,108 -25,108 -4,0 -19,8 -33,17 -14,10 -38,19 -52,20 -20,3 -17,-1 15,-16 23,-10 44,-27 48,-37 26,-64 6,-106 -40,-86 -13,7 -24,16 -24,22 0,5 -7,10 -16,10 -9,0 -14,6 -11,13 2,6 -1,21 -6,32 -22,40 -25,112 -7,145 10,19 18,21 55,17 24,-3 54,-11 66,-17 13,-7 19,-8 15,-2 -5,8 -108,53 -119,52 -1,0 -17,-8 -34,-16 z"
       id="path26"
       inkscape:connector-curvature="0" />
    <path
       d="m 7345,5672 c -11,-9 -21,-27 -23,-40 -4,-28 27,-132 39,-132 5,0 9,-4 9,-10 0,-13 44,-56 67,-64 15,-5 16,-4 3,7 -34,28 -59,89 -67,163 -4,35 -2,42 18,50 19,9 27,6 49,-16 31,-33 84,-95 87,-101 16,-39 23,-63 18,-67 -2,-3 1,-12 8,-20 9,-13 9,-14 0,-8 -7,4 -13,2 -13,-4 0,-6 -6,-10 -12,-9 -7,1 -26,1 -43,-1 -50,-3 1,-18 64,-19 l 53,-1 -6,38 c -3,20 -8,47 -11,59 -9,39 -15,67 -20,101 -3,19 -7,37 -10,42 -3,5 4,12 16,15 14,5 29,0 47,-16 21,-18 20,-16 -3,8 -37,38 -65,47 -90,30 -16,-13 -17,-20 -8,-65 5,-29 8,-54 5,-56 -2,-3 -17,11 -32,32 -62,84 -111,113 -145,84 z"
       id="path28"
       inkscape:connector-curvature="0" />
    <path
       d="m 7911,5676 c -17,-20 -16,-54 6,-151 14,-61 11,-89 -11,-93 -18,-4 -60,34 -93,84 -8,13 -20,21 -26,17 -5,-3 -7,-1 -3,5 3,6 1,23 -5,39 -14,35 -21,63 -22,86 -1,12 -10,17 -28,17 -26,0 -27,-2 -19,-30 5,-17 9,-31 9,-33 -1,-1 2,-13 5,-27 11,-49 18,-86 23,-127 5,-45 -2,-51 -37,-33 -15,8 -18,7 -15,-2 8,-20 47,-35 75,-28 21,5 25,12 25,46 1,21 -3,47 -7,57 -17,35 11,16 46,-31 44,-61 108,-94 131,-68 11,12 11,62 1,111 -3,17 -9,44 -12,60 -13,65 -9,88 16,80 30,-9 24,2 -10,20 -35,18 -35,18 -49,1 z"
       id="path30"
       inkscape:connector-curvature="0" />
    <path
       d="m 8113,5678 c -11,-5 -29,-25 -39,-44 -17,-31 -17,-35 -1,-88 18,-55 79,-130 120,-145 31,-12 95,-1 99,17 8,31 -3,45 -16,20 -15,-30 -70,-33 -104,-4 -53,47 -74,157 -39,212 7,12 66,12 85,0 7,-4 12,-3 12,1 0,25 -84,47 -117,31 z"
       id="path32"
       inkscape:connector-curvature="0" />
    <path
       d="m 8392,5668 c -31,-22 -32,-25 -31,-87 2,-56 6,-69 33,-100 44,-51 77,-81 90,-82 6,0 24,-2 39,-3 54,-4 69,61 26,112 -25,29 -109,70 -109,52 0,-6 7,-10 15,-10 8,0 29,-13 46,-28 25,-22 32,-37 31,-62 -1,-47 -16,-58 -50,-38 -53,32 -73,74 -76,159 -1,68 41,95 109,69 24,-9 26,-8 16,3 -6,8 -24,17 -39,21 -15,3 -36,8 -47,11 -12,3 -33,-3 -53,-17 z"
       id="path34"
       inkscape:connector-curvature="0" />
    <path
       d="m 6469,5635 c -2,-57 -6,-95 -12,-120 -3,-11 -6,-25 -6,-31 -1,-6 -13,-23 -27,-37 l -26,-27 -32,22 -31,23 25,-32 c 21,-28 31,-32 65,-30 51,3 71,36 87,145 8,51 16,78 22,74 14,-8 -14,29 -34,45 -25,20 -30,15 -31,-32 z"
       id="path36"
       inkscape:connector-curvature="0" />
    <path
       d="m 7054,5653 c 10,-56 17,-87 21,-93 2,-3 7,-36 10,-73 6,-58 5,-67 -10,-67 -9,0 -13,-4 -10,-10 3,-5 22,-10 42,-10 h 35 l -5,54 c -2,29 -8,59 -12,66 -4,7 -2,16 6,21 11,7 11,11 1,17 -14,9 -28,58 -31,110 -1,6 -13,12 -27,12 -22,0 -25,-3 -20,-27 z"
       id="path38"
       inkscape:connector-curvature="0" />
    <path
       d="m 6563,5581 c 45,-54 69,-110 65,-147 -2,-18 1,-35 7,-37 20,-8 41,9 41,33 -1,25 -73,128 -117,165 -19,17 -19,14 4,-14 z"
       id="path40"
       inkscape:connector-curvature="0" />
    <path
       d="m 7157,5499 c 31,-54 71,-91 108,-99 26,-6 35,-5 35,5 0,19 -25,36 -43,29 -11,-4 -33,11 -67,45 -42,42 -48,46 -33,20 z"
       id="path42"
       inkscape:connector-curvature="0" />
    <path
       d="m 6250,5321 c 0,-5 9,-13 20,-16 11,-3 20,-11 20,-16 0,-6 5,-7 12,-3 8,5 4,13 -11,26 -25,20 -41,23 -41,9 z"
       id="path44"
       inkscape:connector-curvature="0" />
  </g>
  <g
     inkscape:label="chains"
     id="chains"
     inkscape:groupmode="layer"
     style="display:inline">
    <path
       inkscape:connector-curvature="0"
       id="chains-1"
       d="m 5710,6515 c 0,-2 15,-12 33,-20 l 32,-16 -25,20 c -24,20 -40,26 -40,16 z" />
    <path
       inkscape:connector-curvature="0"
       id="chains-2"
       d="m 7398,5014 c -4,-3 -12,-7 -20,-8 -23,-5 -52,-19 -83,-40 -35,-24 -45,-37 -39,-47 2,-4 -4,-10 -13,-13 -10,-4 -29,-25 -43,-48 -14,-23 -43,-60 -65,-83 -55,-58 -87,-104 -80,-115 3,-5 0,-7 -7,-5 -8,3 -27,-11 -43,-32 -17,-20 -37,-44 -45,-53 -24,-24 -39,-66 -46,-123 -5,-42 -3,-56 10,-66 9,-7 16,-20 16,-28 0,-8 4,-12 9,-9 5,4 7,-3 4,-14 -3,-11 -9,-20 -14,-20 -5,0 -9,-7 -9,-15 0,-7 -8,-19 -17,-24 -10,-6 -13,-11 -8,-11 6,0 -1,-7 -15,-14 -17,-10 -30,-11 -43,-4 -21,11 -93,9 -118,-3 -24,-12 -159,-151 -159,-164 0,-6 -8,-18 -17,-26 -23,-21 -42,-44 -76,-97 -15,-23 -32,-42 -37,-42 -6,0 -10,-7 -10,-16 0,-9 -12,-28 -28,-42 -51,-50 -110,-137 -117,-172 -5,-28 -1,-42 19,-70 44,-61 52,-80 35,-91 -8,-5 -10,-9 -6,-9 12,0 -49,-50 -61,-50 -9,0 -22,-22 -28,-47 -3,-15 24,-24 53,-19 34,7 38,-12 9,-41 -31,-31 -33,-49 -7,-63 23,-12 34,-13 28,-2 -3,4 6,8 19,8 22,2 24,-2 22,-34 -2,-28 1,-37 15,-40 12,-2 20,3 24,17 3,12 8,21 12,21 4,0 13,21 20,46 8,25 23,54 33,64 11,10 17,24 13,30 -5,9 -1,10 16,5 13,-4 27,-13 31,-19 4,-6 37,-10 80,-10 92,2 108,4 108,19 0,6 10,21 23,33 30,28 47,49 47,59 0,4 16,24 36,43 19,18 43,47 52,62 9,15 22,28 29,28 7,0 13,6 13,13 0,7 8,22 19,33 10,11 21,30 25,41 4,11 15,28 26,38 11,10 20,24 20,32 0,7 5,13 10,13 6,0 14,8 17,18 4,9 19,33 34,52 59,76 62,169 7,227 l -30,31 26,29 c 14,15 26,33 26,39 0,14 59,9 92,-9 34,-17 49,-16 118,9 32,11 69,34 90,56 49,51 70,77 70,86 0,4 12,22 28,39 37,43 92,118 92,127 0,3 18,37 41,74 23,37 43,76 44,87 5,27 13,60 15,60 8,0 6,57 -3,85 -14,40 -10,37 -142,134 -97,72 -135,92 -147,80 z m 54,-229 c 66,-42 73,-63 48,-134 -12,-31 -34,-71 -51,-88 -16,-18 -29,-36 -29,-40 0,-5 -11,-20 -25,-35 -14,-15 -25,-32 -25,-38 0,-5 -4,-10 -10,-10 -5,0 -10,-6 -10,-12 -1,-20 -84,-106 -113,-117 -40,-15 -44,5 -9,48 17,21 29,47 27,57 -2,10 -4,22 -4,26 -2,13 -90,58 -114,58 -32,0 -30,19 6,60 15,16 27,34 27,40 0,5 5,10 10,10 6,0 10,6 10,14 0,7 9,25 21,40 11,14 17,31 13,37 -4,8 -3,9 4,5 11,-7 38,32 34,47 -1,5 2,6 6,3 5,-3 18,4 28,16 22,24 72,48 94,45 9,-2 36,-16 62,-32 z m -694,-706 c -5,-15 -16,-30 -24,-33 -8,-3 -14,-15 -14,-26 0,-11 -4,-20 -10,-20 -5,0 -10,-7 -10,-15 0,-8 -4,-15 -9,-15 -12,0 -20,-49 -9,-56 4,-3 6,-9 3,-14 -6,-10 24,-22 36,-14 5,3 8,2 7,-3 -5,-14 36,-53 55,-53 11,0 32,10 47,23 15,12 37,29 49,37 12,8 19,21 16,28 -2,7 0,10 5,7 6,-3 10,-3 10,2 1,13 36,52 51,55 17,4 19,-24 2,-37 -6,-5 -21,-28 -32,-51 -12,-22 -29,-49 -39,-60 -10,-10 -29,-35 -42,-54 -13,-19 -30,-41 -37,-48 -7,-7 -13,-17 -13,-22 0,-4 -13,-22 -30,-40 -16,-18 -27,-37 -23,-44 3,-6 2,-8 -2,-3 -9,8 -45,-20 -45,-35 0,-5 -7,-16 -15,-24 -8,-9 -15,-12 -15,-8 0,3 -6,2 -12,-3 -13,-10 -45,-10 -55,1 -3,3 1,20 10,37 11,25 13,38 4,56 -5,13 -12,21 -15,18 -3,-2 -15,6 -27,20 -13,13 -39,27 -59,30 -20,4 -36,10 -36,13 0,3 11,20 25,38 14,18 25,37 25,43 0,5 10,17 22,25 12,9 19,16 15,16 -8,0 31,79 44,90 3,3 12,16 19,30 7,14 22,31 32,39 11,7 17,19 14,27 -3,8 -2,13 3,11 4,-1 20,12 34,29 34,40 59,42 45,3 z" />
    <path
       inkscape:connector-curvature="0"
       id="path3952"
       d="m 5746,2861 c -10,-11 -15,-25 -10,-32 4,-8 3,-10 -4,-5 -7,4 -12,2 -12,-4 0,-11 -10,-26 -48,-67 -21,-23 -25,-23 -45,-10 -76,49 -143,21 -217,-88 -14,-20 -37,-51 -52,-69 -15,-18 -25,-36 -23,-40 3,-3 2,-4 -1,-1 -10,7 -45,-36 -38,-46 3,-5 -2,-9 -10,-9 -8,0 -29,-21 -47,-47 -17,-27 -37,-52 -43,-58 -15,-14 -82,-115 -97,-148 -7,-15 -16,-27 -21,-27 -18,0 -8,-91 15,-123 12,-18 25,-33 30,-35 9,-5 9,-52 -1,-52 -4,0 -16,-13 -25,-30 -21,-35 -34,-37 -84,-10 -77,41 -119,25 -190,-73 -29,-40 -66,-87 -82,-105 -17,-18 -31,-40 -31,-48 0,-8 -4,-14 -10,-14 -5,0 -10,-6 -10,-14 0,-8 -7,-17 -16,-20 -8,-3 -13,-10 -10,-14 3,-5 -6,-20 -20,-33 -15,-13 -43,-49 -63,-79 -44,-66 -84,-123 -91,-130 -12,-12 -10,-81 4,-107 13,-25 58,-71 157,-159 43,-39 145,-75 178,-62 13,5 31,16 38,26 10,12 13,12 8,2 -3,-8 2,-5 11,7 9,13 20,23 25,23 12,0 49,38 49,50 0,6 10,21 23,33 12,12 28,34 35,50 6,15 16,27 21,27 9,0 24,38 22,53 -1,5 2,6 6,4 5,-3 19,11 33,30 14,19 39,51 57,71 18,19 30,39 27,44 -3,4 2,8 10,8 9,0 16,7 16,15 0,8 4,15 9,15 8,0 23,29 26,50 0,3 9,17 19,32 11,18 17,42 15,70 -3,48 -12,71 -40,99 -20,20 -25,39 -10,39 5,0 14,14 21,30 10,25 18,30 46,30 18,0 36,-5 39,-11 6,-9 34,-8 85,3 28,7 99,60 105,79 4,11 23,39 43,63 65,76 74,89 95,125 12,20 27,42 34,49 7,7 13,17 13,21 0,4 15,25 34,46 19,21 34,42 33,45 -1,4 8,20 20,36 12,16 22,32 23,36 0,4 12,19 26,33 23,23 25,31 21,83 -3,31 -8,72 -12,90 -6,28 -3,35 20,54 39,30 75,71 75,84 0,6 -6,17 -14,23 -11,9 -21,4 -49,-24 -51,-51 -92,-47 -47,5 22,25 23,30 12,45 -9,14 -21,13 -51,-4 -23,-13 -23,-12 -16,15 18,68 -2,96 -39,55 z m -271,-400 c 8,-35 24,-50 61,-57 16,-3 30,-7 33,-9 8,-8 61,26 77,50 18,28 44,33 44,10 0,-8 -5,-15 -11,-15 -5,0 -8,-4 -4,-9 3,-6 -1,-13 -8,-18 -16,-9 -127,-168 -127,-181 0,-5 -12,-19 -26,-33 -14,-13 -32,-37 -40,-52 -8,-15 -19,-25 -24,-22 -6,4 -10,-1 -10,-9 0,-9 -4,-16 -10,-16 -12,0 -13,20 -1,38 11,18 -9,60 -31,68 -10,3 -18,9 -18,13 0,14 -62,22 -76,10 -8,-6 -14,-8 -14,-4 0,4 -9,-4 -21,-19 -30,-39 -39,-32 -17,14 11,22 24,40 29,40 5,0 14,11 21,25 6,13 14,22 18,20 10,-6 31,45 24,57 -4,6 -2,8 4,5 12,-8 55,40 78,88 20,43 40,45 49,6 z m -629,-775 c -20,-42 -13,-61 33,-103 53,-49 76,-44 154,32 36,35 69,60 71,56 3,-5 -5,-20 -18,-34 -13,-14 -40,-53 -61,-86 -20,-34 -41,-61 -46,-61 -5,0 -9,-6 -9,-13 0,-7 -13,-28 -30,-47 -16,-19 -29,-41 -30,-48 0,-7 -7,-15 -15,-18 -8,-4 -15,-12 -15,-20 0,-8 -6,-14 -12,-14 -7,0 -21,-13 -32,-28 -23,-35 -61,-36 -103,-1 -17,13 -47,37 -67,53 -46,36 -60,69 -45,99 6,12 37,47 69,78 31,30 65,69 75,87 11,18 23,32 27,32 4,0 8,5 8,11 0,12 53,69 59,63 2,-2 -4,-19 -13,-38 z" />
  </g>
  <g
     inkscape:label="spark"
     id="spark"
     inkscape:groupmode="layer"
     style="display:inline;opacity:1">
    <path
       d="m 6181,3873 c -5,-10 -11,-45 -12,-78 -4,-55 -2,-60 17,-63 26,-4 34,19 34,101 0,43 -3,57 -15,57 -8,0 -18,-8 -24,-17 z"
       id="path63"
       inkscape:connector-curvature="0" />
    <path
       d="m 6145,3580 c -3,-5 -6,-31 -6,-57 -1,-26 -7,-75 -14,-108 -7,-33 -13,-80 -13,-105 0,-25 -4,-65 -8,-90 -13,-81 -11,-105 8,-104 10,1 15,-2 12,-7 -3,-5 -1,-9 5,-9 11,0 27,57 31,110 5,81 7,108 14,155 4,28 9,61 11,75 2,14 6,44 10,66 4,25 3,50 -4,63 -12,22 -36,28 -46,11 z"
       id="path65"
       inkscape:connector-curvature="0" />
    <path
       d="m 6671,3221 c -12,-21 -5,-31 20,-31 24,0 33,18 19,35 -17,20 -27,19 -39,-4 z"
       id="path67"
       inkscape:connector-curvature="0" />
    <path
       d="m 6568,3215 c -3,-3 -15,-8 -27,-10 -48,-11 -58,-14 -103,-34 -51,-23 -65,-38 -51,-52 7,-7 25,-4 93,16 3,1 12,4 20,8 8,3 32,11 53,17 20,6 37,17 37,23 0,17 -15,38 -22,32 z"
       id="path69"
       inkscape:connector-curvature="0" />
    <path
       d="m 6321,3121 c -7,-5 -10,-15 -7,-22 4,-8 1,-6 -7,3 -13,16 -15,16 -37,1 -17,-12 -21,-13 -15,-2 5,8 -2,5 -16,-6 -59,-49 -44,-60 43,-34 37,11 70,23 72,28 9,15 -18,41 -33,32 z"
       id="path71"
       inkscape:connector-curvature="0" />
    <path
       d="m 5589,3056 c -2,-2 -28,-6 -58,-9 -61,-7 -69,-12 -55,-34 22,-35 118,-40 145,-7 10,12 9,19 -7,35 -11,11 -22,18 -25,15 z"
       id="path73"
       inkscape:connector-curvature="0" />
    <path
       d="m 5722,3042 c -7,-19 32,-52 61,-52 18,0 17,-14 -1,-16 -22,-2 -73,-19 -112,-37 -24,-10 -51,-21 -60,-22 -8,-2 -15,-4 -15,-5 0,-2 -33,-10 -60,-15 -11,-2 -31,-7 -45,-13 -14,-5 -28,-10 -33,-10 -30,-4 -53,-45 -33,-61 14,-11 56,-11 56,1 0,4 12,8 28,8 15,0 39,6 53,14 25,13 65,25 103,33 10,2 40,14 65,27 26,13 69,27 96,31 57,10 52,8 88,23 16,7 37,12 47,12 11,0 24,8 29,19 8,14 6,20 -12,28 -21,10 -33,10 -67,2 -8,-2 -15,2 -16,9 -1,6 -2,17 -3,23 0,6 -8,9 -16,6 -8,-4 -17,-2 -21,4 -10,16 -125,8 -132,-9 z"
       id="path75"
       inkscape:connector-curvature="0" />
    <path
       d="m 6240,2998 c -54,-20 -22,-43 76,-52 32,-3 69,-8 82,-10 32,-7 51,2 49,25 -1,13 -11,21 -37,25 -19,3 -44,8 -55,11 -29,8 -94,9 -115,1 z"
       id="path77"
       inkscape:connector-curvature="0" />
    <path
       d="m 6555,2962 c -27,-6 -45,-21 -39,-35 7,-18 121,-21 127,-3 10,26 -41,47 -88,38 z"
       id="path79"
       inkscape:connector-curvature="0" />
    <path
       d="m 6176,2901 c -17,-19 -16,-21 26,-48 23,-15 45,-31 48,-34 3,-3 13,-5 23,-3 9,1 15,-1 13,-5 -5,-7 28,-41 39,-41 2,0 17,-12 33,-27 16,-16 57,-53 92,-83 35,-30 68,-60 74,-66 12,-12 51,-34 60,-34 3,0 10,9 16,19 11,21 -14,49 -125,142 -27,22 -61,51 -75,63 -14,12 -43,35 -65,51 -22,17 -43,34 -47,40 -4,5 -8,7 -8,2 0,-4 -18,4 -40,18 -47,30 -43,30 -64,6 z"
       id="path81"
       inkscape:connector-curvature="0" />
    <path
       d="m 6112,2834 c -12,-22 -3,-70 19,-90 43,-39 63,43 22,88 -20,22 -29,23 -41,2 z"
       id="path85"
       inkscape:connector-curvature="0" />
    <path
       d="m 6023,2828 c -6,-7 -13,-31 -16,-53 -2,-22 -6,-47 -8,-55 -4,-16 29,-25 48,-13 6,5 13,22 16,40 3,17 8,36 11,41 6,10 -21,52 -33,52 -5,0 -13,-6 -18,-12 z"
       id="path87"
       inkscape:connector-curvature="0" />
    <path
       d="m 5293,2819 c -33,-9 -66,-45 -57,-61 6,-10 78,-11 88,0 4,4 12,7 18,7 21,0 33,32 19,49 -15,18 -22,18 -68,5 z"
       id="path89"
       inkscape:connector-curvature="0" />
    <path
       d="m 6163,2653 c -3,-10 -7,-21 -9,-24 -2,-3 7,-26 20,-52 13,-25 22,-48 20,-50 -9,-9 27,-29 42,-23 10,4 13,12 9,27 -4,12 -8,27 -9,33 -13,71 -59,128 -73,89 z"
       id="path91"
       inkscape:connector-curvature="0" />
    <path
       d="m 5982,2587 c -26,-44 -35,-92 -18,-106 19,-16 43,-4 52,27 8,29 9,35 19,69 5,15 1,24 -13,32 -18,9 -23,6 -40,-22 z"
       id="path93"
       inkscape:connector-curvature="0" />
    <path
       d="m 6662,2537 c -20,-24 -16,-35 22,-62 50,-34 70,-38 84,-15 9,15 6,23 -15,44 -14,14 -32,26 -39,26 -8,0 -14,5 -14,10 0,14 -26,12 -38,-3 z"
       id="path95"
       inkscape:connector-curvature="0" />
    <path
       d="m 6226,2434 c -7,-19 1,-34 19,-34 15,0 28,27 19,41 -9,14 -31,10 -38,-7 z"
       id="path97"
       inkscape:connector-curvature="0" />
    <path
       style="display:inline;stroke-width:1.26553619"
       d="m 5745.2605,2672.3295 c -10.1849,-5.0284 -30.1845,-29.8406 -44.7611,-54.4917 -13.4774,-25.209 -30.6914,-52.8919 -36.9914,-61.3486 -12.6002,-16.9137 19.0661,-46.0962 46.1065,-42.3386 9.1597,2.635 25.5706,19.071 38.0967,38.9358 12.0133,18.6682 27.2507,38.6135 33.1123,42.9225 11.723,8.618 3.5708,73.9403 -9.6219,80.6361 -5.497,2.7899 -17.3681,0.074 -25.9411,-4.3155 z"
       id="path87-4"
       inkscape:connector-curvature="0" />
    <path
       style="display:inline;stroke-width:1.54903436"
       d="m 6636.2201,3566.5482 c -12.5211,-5.1905 -54.2343,-40.6879 -92.1651,-77.6838 -37.8421,-38.3001 -80.9986,-79.5704 -94.8731,-91.8376 -27.7494,-24.5348 -40.2016,-84.3141 -17.9567,-86.783 9.0967,1.4712 38.8262,23.9518 69.9102,53.5099 29.3715,27.6987 62.3457,56.5073 71.1743,61.8916 17.6565,10.7687 87.1401,124.0858 86.0656,139.7383 -0.4478,6.5219 -11.4358,5.7995 -22.1551,1.1646 z"
       id="path87-4-6"
       inkscape:connector-curvature="0" />
  </g>
</svg>
